<svg width="90" height="89" viewBox="0 0 90 89" fill="none" xmlns="http://www.w3.org/2000/svg">
<circle cx="37" cy="51.9998" r="37" fill="#46A358" fill-opacity="0.13"/>
<g clip-path="url(#clip0_99640_305)">
<path d="M51.3006 44.0268C51.3205 44.511 51.4595 44.9691 51.7176 45.3813C51.9393 45.7412 52.5053 45.3977 52.2835 45.041C52.0883 44.7237 51.979 44.3867 51.9658 44.017C51.946 43.595 51.2841 43.608 51.3006 44.0268Z" fill="#46A358"/>
<path d="M59.8093 43.984C59.7762 44.1673 59.7398 44.3472 59.7067 44.5304C59.6736 44.7038 59.7663 44.8837 59.945 44.9296C60.1105 44.9721 60.3156 44.8674 60.3487 44.694C60.3818 44.5108 60.4182 44.3308 60.4513 44.1476C60.4844 43.9742 60.3918 43.7943 60.2131 43.7485C60.0476 43.7059 59.8424 43.8106 59.8093 43.984Z" fill="#46A358"/>
<path d="M64.3401 44.6352C64.767 44.6253 64.7538 43.971 64.3268 43.9808C63.8999 43.9906 63.9131 44.645 64.3401 44.6352Z" fill="#46A358"/>
<path d="M39.4823 45.7934C39.9092 45.7835 39.896 45.1292 39.469 45.139C39.0421 45.1488 39.0554 45.8032 39.4823 45.7934Z" fill="#46A358"/>
<path d="M51.5885 4.38694C49.0335 11.8366 47.6402 19.6395 47.488 27.5079C47.4118 31.4634 47.6468 35.4221 48.1929 39.3416C48.4444 41.1476 48.7621 42.947 49.146 44.7301C49.4472 46.1238 49.6027 47.7171 50.6486 48.7804C51.0953 49.2352 51.7804 48.5252 51.3369 48.0737C50.2084 46.9254 50.0926 44.4978 49.8013 42.9961C49.434 41.0985 49.1427 39.1846 48.9276 37.2608C48.5205 33.6227 48.3848 29.9584 48.5139 26.3007C48.7754 18.9198 50.1554 11.6206 52.5515 4.62905C52.7567 4.03033 51.7903 3.79149 51.5885 4.38694Z" fill="#46A358"/>
<path d="M55.4407 4.52123C56.7778 11.9643 56.8109 19.571 57.0789 27.1057C57.2047 30.6456 57.4198 34.1954 57.347 37.7386C57.2709 41.416 56.5461 44.8742 55.5698 48.4076C55.401 49.0194 56.3641 49.2582 56.5329 48.6497C57.4496 45.342 58.1777 42.0769 58.3167 38.6351C58.4722 34.7908 58.2108 30.927 58.0751 27.0893C57.8037 19.463 57.7475 11.7778 56.3939 4.24314C56.2814 3.62152 55.3282 3.90288 55.4407 4.52123Z" fill="#46A358"/>
<path d="M62.6291 17.3102C63.0825 27.4949 63.4929 37.804 60.9776 47.7793C60.8221 48.3944 61.7851 48.6332 61.9407 48.0214C64.4758 37.961 64.0819 27.5603 63.6219 17.2905C63.5921 16.6591 62.5993 16.6754 62.6291 17.3102Z" fill="#46A358"/>
<path d="M59.8226 17.4605C58.4161 19.0866 57.4762 20.9776 57.0625 23.0813C56.94 23.6996 57.9031 23.945 58.0256 23.3234C58.4062 21.38 59.2368 19.646 60.5375 18.141C60.9512 17.6601 60.2396 16.9796 59.8226 17.4605Z" fill="#46A358"/>
<path d="M69.6055 23.7162C69.5824 31.0905 68.5829 38.3962 66.6236 45.5121C66.4549 46.1239 67.4179 46.3628 67.5867 45.7542C69.5658 38.5565 70.5752 31.156 70.5984 23.6965C70.5984 23.0651 69.6055 23.0847 69.6055 23.7162Z" fill="#46A358"/>
<path d="M67.719 21.5209C65.1509 24.4621 63.8899 28.0839 62.9831 31.8103C62.8342 32.4254 63.7973 32.6675 63.9462 32.0524C64.8133 28.5027 65.9849 25.0118 68.4372 22.2014C68.8509 21.7237 68.136 21.04 67.719 21.5209Z" fill="#46A358"/>
<path d="M43.7549 10.4168C45.5221 14.5326 46.8062 18.7989 47.6005 23.1993C47.713 23.8209 48.6629 23.5363 48.5537 22.9179C47.7594 18.5175 46.472 14.2512 44.708 10.1355C44.4598 9.56292 43.5067 9.83447 43.7549 10.4168Z" fill="#46A358"/>
<path d="M41.9148 10.7733C41.3952 17.0189 40.8855 23.3431 41.9379 29.5658C43.04 36.0569 45.7472 42.3908 47.8289 48.6234C48.0274 49.2221 48.9806 48.944 48.782 48.342C46.7665 42.2992 44.1619 36.155 42.997 29.8865C41.8254 23.5754 42.3781 17.1007 42.9076 10.7537C42.9606 10.1255 41.9677 10.1484 41.9148 10.7733Z" fill="#46A358"/>
<path d="M35.5969 25.8623C38.9097 28.9115 41.5937 32.4776 43.6059 36.4854C43.8905 37.0514 44.7345 36.5345 44.4532 35.9718C42.4046 31.892 39.6577 28.2572 36.2853 25.1523C35.8186 24.7237 35.1303 25.4304 35.5969 25.8623Z" fill="#46A358"/>
<path d="M33.3233 27.1219C35.8882 34.6992 39.34 41.9361 43.6258 48.7085C43.9634 49.2451 44.8139 48.7347 44.4731 48.1948C40.2303 41.4912 36.8148 34.3393 34.2764 26.8406C34.0746 26.2451 33.1214 26.52 33.3233 27.1219Z" fill="#46A358"/>
<path d="M39.0686 46.7617C37.6058 44.1771 35.4612 42.0276 32.7937 40.66C32.251 40.3819 31.7314 40.4539 32.7838 40.3492C33.1677 40.3099 33.5649 40.2936 33.9488 40.3001C35.1998 40.3132 36.3316 40.5357 37.4072 41.2064C38.6582 41.985 39.7503 43.1039 40.869 44.056C41.3521 44.4682 42.0405 43.7616 41.5573 43.3493C40.1409 42.1388 38.7376 40.6273 37.0001 39.8748C36.0304 39.4527 34.9813 39.3284 33.9289 39.3251C33.2604 39.3219 31.8704 39.1976 31.3111 39.7603C30.2189 40.853 32.3106 41.4975 32.9625 41.8803C35.1998 43.1825 36.9604 45.0539 38.2213 47.2852C38.5324 47.8283 39.3797 47.3146 39.0686 46.7617Z" fill="#46A358"/>
<path d="M69.2811 38.792C70.2508 36.6556 72.5046 35.9849 74.6492 35.54C74.9636 35.4745 75.0893 35.0623 74.9305 34.8137C73.7655 32.9946 71.6441 32.8081 69.6551 32.9881C69.023 33.0437 69.0362 34.0252 69.675 33.9696C71.2801 33.8256 73.1169 33.8158 74.0832 35.3273C74.1759 35.0852 74.2719 34.8431 74.3646 34.601C71.9751 35.095 69.483 35.9489 68.414 38.3144C68.1526 38.8869 69.0197 39.3679 69.2811 38.792Z" fill="#46A358"/>
<path d="M35.4314 24.9135C34.9945 25.4827 34.5047 26.1927 33.78 26.4217C33.0651 26.6474 32.3006 26.3235 32.3569 25.4696C32.3999 24.8022 32.979 24.3147 33.5417 24.0366C34.197 23.7127 35.994 23.559 35.5174 24.8022C35.2924 25.3944 36.2555 25.6267 36.4805 25.0443C36.9405 23.8436 35.8352 22.7934 34.6636 22.7705C33.4325 22.7476 31.9994 23.5557 31.5361 24.7106C31.1026 25.7804 31.556 27.1186 32.7606 27.4228C34.2334 27.7925 35.3487 26.6376 36.1496 25.5972C36.5302 25.0934 35.8186 24.4096 35.4314 24.9135Z" fill="#46A358"/>
<path d="M43.9965 9.68047C43.3776 9.79498 42.4807 10.1941 41.8618 9.86695C41.2429 9.53651 41.3555 8.71532 41.7129 8.24093C42.0869 7.7469 42.676 7.56696 43.2717 7.73054C43.7549 7.86468 45.2607 9.11447 44.2116 9.54633C43.6291 9.78516 43.9038 10.7307 44.4962 10.4886C45.7373 9.97819 45.6942 8.55828 44.8966 7.64548C44.0924 6.72287 42.6528 6.3728 41.5772 7.04349C40.6373 7.63239 40.1144 8.91489 40.6241 9.9422C41.3455 11.4014 43.0334 10.8517 44.2811 10.6227C44.9066 10.5049 44.6186 9.56269 43.9965 9.68047Z" fill="#46A358"/>
<path d="M55.7916 3.69345C54.9311 3.91266 53.9283 4.17112 53.0414 3.95846C51.7937 3.66401 51.7474 2.25064 52.6244 1.51778C53.326 0.932153 54.4016 0.866719 55.2521 1.12191C55.7883 1.28222 56.4171 1.62902 56.5627 2.21138C56.7017 2.75775 56.4336 3.29758 55.8776 3.43172C55.2588 3.58222 55.5401 4.52446 56.1623 4.37396C57.6416 4.01408 57.9659 2.19175 57.0558 1.11864C56.0299 -0.0886126 53.9714 -0.294729 52.5913 0.372695C51.294 1.00086 50.503 2.68905 51.3668 3.97809C52.3662 5.47325 54.62 5.00213 56.0729 4.62915C56.6918 4.47539 56.4105 3.53314 55.7916 3.69345Z" fill="#46A358"/>
<path d="M62.8707 13.3416C61.4443 13.0897 59.8822 13.4987 59.2302 14.8957C58.7007 16.0277 59.2004 17.4967 60.4316 17.922C61.6726 18.3506 63.5557 17.8206 64.2441 16.682C64.9027 15.586 64.4261 14.1955 63.387 13.5412C62.8475 13.2009 62.3676 14.0614 62.9038 14.3984C63.5723 14.8172 63.7907 15.7692 63.2446 16.381C62.7581 16.9274 61.719 17.1597 61.014 17.0354C60.1072 16.8751 59.7564 15.9361 60.2098 15.1607C60.7062 14.3133 61.7289 14.1367 62.6291 14.2937C63.2546 14.4049 63.4995 13.4529 62.8707 13.3416Z" fill="#46A358"/>
<path d="M70.5652 18.766C69.3109 18.6842 67.5734 18.8608 67.2954 20.3789C67.067 21.6221 68.4968 23.2645 69.5922 23.7062C72.7197 24.9658 73.3882 18.6842 70.691 18.851C70.0555 18.8903 70.0721 19.8718 70.7108 19.8325C71.5878 19.7769 71.3727 21.8282 71.1741 22.2339C70.7075 23.1991 69.8139 22.8457 69.2248 22.2307C68.7714 21.7563 67.9573 20.9154 68.4273 20.2349C68.8807 19.5806 69.8934 19.7049 70.5851 19.7475C71.2238 19.79 71.1973 18.8085 70.5652 18.766Z" fill="#46A358"/>
<path d="M52.6377 6.17643C52.5384 6.50687 52.4358 6.83731 52.3365 7.16775C52.214 7.57344 52.8561 7.73048 52.9785 7.32806C53.0778 6.99762 53.1804 6.66718 53.2797 6.33674C53.4022 5.93105 52.7601 5.77401 52.6377 6.17643Z" fill="#46A358"/>
<path d="M54.0508 6.23233C54.0541 6.45154 54.0608 6.66747 54.0641 6.88667C54.074 7.30872 54.7359 7.29563 54.726 6.87358C54.7227 6.65438 54.716 6.43845 54.7127 6.21925C54.7061 5.7972 54.0442 5.81029 54.0508 6.23233Z" fill="#46A358"/>
<path d="M53.5809 10.1679C54.0078 10.1581 53.9946 9.50372 53.5676 9.51354C53.144 9.52008 53.1573 10.1744 53.5809 10.1679Z" fill="#46A358"/>
<path d="M51.605 10.5344C51.5752 10.8976 51.5455 11.264 51.519 11.6272C51.5057 11.8039 51.6911 11.9511 51.8566 11.9478C52.0518 11.9445 52.1676 11.7908 52.1809 11.6141C52.2107 11.2509 52.2405 10.8845 52.2669 10.5214C52.2802 10.3447 52.0948 10.1975 51.9294 10.2007C51.7341 10.204 51.6183 10.3578 51.605 10.5344Z" fill="#46A358"/>
<path d="M53.1704 11.5944C53.1803 11.9935 53.1869 12.3927 53.1969 12.7951C53.2068 13.2171 53.8687 13.2041 53.8588 12.782C53.8489 12.3829 53.8422 11.9837 53.8323 11.5813C53.8224 11.1593 53.1605 11.1723 53.1704 11.5944Z" fill="#46A358"/>
<path d="M54.342 9.2781C54.385 9.60527 54.4281 9.93244 54.4711 10.2563C54.4943 10.433 54.6167 10.5802 54.8087 10.577C54.9708 10.5737 55.1562 10.4199 55.133 10.2432C55.09 9.91608 55.0469 9.58891 55.0039 9.26501C54.9808 9.08834 54.8583 8.94112 54.6664 8.94439C54.5009 8.94766 54.3155 9.10143 54.342 9.2781Z" fill="#46A358"/>
<path d="M54.438 14.1857C54.4413 14.3689 54.4446 14.5489 54.4479 14.7321C54.4578 15.1541 55.1197 15.141 55.1098 14.719C55.1065 14.5358 55.1032 14.3558 55.0999 14.1726C55.0899 13.7506 54.428 13.7637 54.438 14.1857Z" fill="#46A358"/>
<path d="M53.005 8.86926C52.9719 9.19316 53.0447 9.49743 53.1804 9.79188C53.2532 9.95219 53.4981 9.98491 53.6371 9.89984C53.8059 9.79842 53.8191 9.61194 53.7463 9.44835C53.6603 9.26187 53.647 9.05575 53.6669 8.85291C53.6835 8.67623 53.4915 8.52901 53.3293 8.53228C53.1341 8.53882 53.0215 8.69259 53.005 8.86926Z" fill="#46A358"/>
<path d="M50.6949 14.0646C50.6288 14.431 50.5626 14.7942 50.4964 15.1606C50.4203 15.5728 51.0623 15.7364 51.1384 15.3209C51.2046 14.9545 51.2708 14.5913 51.337 14.2249C51.4098 13.8127 50.7711 13.6491 50.6949 14.0646Z" fill="#46A358"/>
<path d="M52.5184 16.3221C52.4886 16.5773 52.4555 16.8325 52.4258 17.0877C52.4059 17.2644 52.4754 17.4378 52.664 17.4868C52.8196 17.5261 53.0446 17.428 53.0678 17.2513C53.0976 16.9961 53.1307 16.7409 53.1605 16.4857C53.1803 16.309 53.1108 16.1356 52.9222 16.0866C52.7666 16.044 52.5416 16.1455 52.5184 16.3221Z" fill="#46A358"/>
<path d="M51.936 20.9777C51.9889 21.2558 51.9559 21.5273 51.8665 21.7923C51.7308 22.1915 52.3728 22.3518 52.5085 21.9526C52.6376 21.5731 52.6475 21.1838 52.5714 20.7912C52.5383 20.6178 52.3199 20.5229 52.161 20.572C51.9724 20.6276 51.8996 20.8043 51.936 20.9777Z" fill="#46A358"/>
<path d="M49.9139 18.3374C49.8841 18.5926 49.851 18.8478 49.8213 19.103C49.8014 19.2797 49.8709 19.4531 50.0595 19.5021C50.2151 19.5414 50.4401 19.4432 50.4633 19.2666C50.4931 19.0114 50.5262 18.7562 50.556 18.501C50.5758 18.3243 50.5063 18.1509 50.3177 18.1019C50.1588 18.0626 49.9338 18.1607 49.9139 18.3374Z" fill="#46A358"/>
<path d="M54.4215 18.8577C54.5009 19.2208 54.577 19.584 54.6565 19.9439C54.7458 20.3561 55.3813 20.1663 55.2919 19.7574C55.2125 19.3942 55.1363 19.0311 55.0569 18.6712C54.9676 18.259 54.3354 18.4454 54.4215 18.8577Z" fill="#46A358"/>
<path d="M54.855 23.6671C54.8616 24.0303 54.8716 24.3935 54.8782 24.7566C54.8881 25.1787 55.55 25.1656 55.5401 24.7435C55.5335 24.3804 55.5236 24.0172 55.5169 23.6541C55.5103 23.232 54.8484 23.2451 54.855 23.6671Z" fill="#46A358"/>
<path d="M54.0739 28.4633C54.117 28.7185 54.1567 28.9704 54.1997 29.2256C54.2295 29.399 54.4545 29.4906 54.6101 29.4448C54.7987 29.3892 54.8616 29.2125 54.8318 29.0391C54.7888 28.7839 54.7491 28.532 54.7061 28.2768C54.6763 28.1034 54.4512 28.0118 54.2957 28.0576C54.107 28.11 54.0442 28.2866 54.0739 28.4633Z" fill="#46A358"/>
<path d="M51.3733 26.0292C51.3766 26.2484 51.3833 26.4643 51.3866 26.6835C51.3965 27.1056 52.0584 27.0925 52.0485 26.6705C52.0452 26.4513 52.0386 26.2353 52.0352 26.0161C52.0286 25.5941 51.3667 25.6072 51.3733 26.0292Z" fill="#46A358"/>
<path d="M49.5498 23.2286C49.573 23.5002 49.5465 23.7554 49.4671 24.0171C49.3447 24.4228 49.9867 24.5798 50.1092 24.1774C50.2051 23.8666 50.2382 23.5394 50.2117 23.2155C50.1753 22.8 49.5134 22.8099 49.5498 23.2286Z" fill="#46A358"/>
<path d="M50.3805 30.76C50.3474 31.0152 50.3177 31.2704 50.2846 31.5256C50.2614 31.7023 50.3342 31.8757 50.5228 31.9247C50.6784 31.964 50.9034 31.8658 50.9266 31.6892C50.9597 31.434 50.9895 31.1788 51.0226 30.9236C51.0457 30.7469 50.9729 30.5735 50.7843 30.5245C50.6254 30.4852 50.4037 30.5833 50.3805 30.76Z" fill="#46A358"/>
<path d="M53.7562 34.4669C53.7993 34.6828 53.839 34.902 53.882 35.118C53.9151 35.2914 54.1335 35.3863 54.2924 35.3372C54.4777 35.2816 54.5472 35.1049 54.5141 34.9315C54.4711 34.7156 54.4314 34.4964 54.3884 34.2804C54.3553 34.107 54.1368 34.0122 53.978 34.0612C53.7926 34.1169 53.7231 34.2935 53.7562 34.4669Z" fill="#46A358"/>
<path d="M51.9657 38.2129C52.0452 38.5761 52.1279 38.9359 52.2073 39.2991C52.3 39.7113 52.9321 39.5216 52.8428 39.1126C52.7633 38.7495 52.6806 38.3896 52.6012 38.0264C52.5085 37.6142 51.8731 37.8007 51.9657 38.2129Z" fill="#46A358"/>
<path d="M55.6592 40.5816C55.5897 40.8368 55.5235 41.0919 55.454 41.3504C55.3448 41.7594 55.9868 41.9197 56.096 41.5107C56.1655 41.2555 56.2317 41.0003 56.3012 40.7419C56.4104 40.3329 55.7684 40.1726 55.6592 40.5816Z" fill="#46A358"/>
<path d="M55.166 12.1867C55.2091 12.4419 55.2521 12.6938 55.2951 12.949C55.3249 13.1224 55.5499 13.214 55.7055 13.1682C55.8941 13.1126 55.957 12.9359 55.9272 12.7625C55.8842 12.5073 55.8412 12.2554 55.7981 12.0002C55.7684 11.8268 55.5433 11.7352 55.3878 11.781C55.2024 11.8366 55.1362 12.0133 55.166 12.1867Z" fill="#46A358"/>
<path d="M55.2455 16.6787C55.2919 17.0059 55.3382 17.3298 55.3845 17.657C55.411 17.8304 55.5269 17.9809 55.7221 17.9776C55.8843 17.9743 56.0696 17.8206 56.0465 17.6439C56.0001 17.3167 55.9538 16.9928 55.9075 16.6656C55.881 16.4922 55.7651 16.3418 55.5699 16.345C55.4077 16.3483 55.2191 16.5053 55.2455 16.6787Z" fill="#46A358"/>
<path d="M60.2097 20.3104C60.1204 20.8241 60.0277 21.3345 59.9384 21.8481C59.8656 22.2604 60.5076 22.4239 60.5804 22.0084C60.6698 21.4948 60.7624 20.9844 60.8518 20.4707C60.9246 20.0585 60.2826 19.8949 60.2097 20.3104Z" fill="#46A358"/>
<path d="M61.4972 19.3876C61.5039 19.6428 61.5072 19.898 61.5138 20.1499C61.5237 20.572 62.1856 20.5589 62.1757 20.1368C62.1691 19.8816 62.1658 19.6264 62.1591 19.3745C62.1492 18.9525 61.4906 18.9656 61.4972 19.3876Z" fill="#46A358"/>
<path d="M61.1364 22.8852C61.0735 23.4315 61.0139 23.9779 60.9511 24.5243C60.9047 24.943 61.5666 24.9234 61.613 24.5112C61.6758 23.9648 61.7354 23.4184 61.7983 22.8721C61.8446 22.4566 61.1827 22.4729 61.1364 22.8852Z" fill="#46A358"/>
<path d="M59.4221 23.8437C59.2798 24.1381 59.1408 24.4326 58.9985 24.7237C58.8164 25.1033 59.3956 25.4239 59.5776 25.0411C59.7199 24.7466 59.8589 24.4522 60.0012 24.161C60.1833 23.7815 59.6041 23.4609 59.4221 23.8437Z" fill="#46A358"/>
<path d="M58.4259 22.0935C58.3399 22.3159 58.2571 22.5352 58.1711 22.7576C58.1082 22.9245 58.2505 23.1142 58.4094 23.1568C58.598 23.2058 58.747 23.0848 58.8131 22.9212C58.8992 22.6987 58.9819 22.4795 59.068 22.2571C59.1309 22.0902 58.9885 21.9004 58.8297 21.8579C58.641 21.8088 58.4921 21.9266 58.4259 22.0935Z" fill="#46A358"/>
<path d="M60.3156 26.3923C60.3024 26.6834 60.2925 26.9746 60.2792 27.2658C60.2627 27.6879 60.9246 27.6715 60.9411 27.2527C60.9544 26.9615 60.9643 26.6704 60.9775 26.3792C60.9941 25.9571 60.3322 25.9735 60.3156 26.3923Z" fill="#46A358"/>
<path d="M61.6726 28.1099C61.6593 28.3814 61.6461 28.6563 61.6328 28.9278C61.6229 29.1045 61.8016 29.2517 61.9704 29.2484C62.1591 29.2452 62.2848 29.0914 62.2948 28.9147C62.308 28.6432 62.3212 28.3683 62.3345 28.0968C62.3444 27.9201 62.1657 27.7729 61.9969 27.7762C61.8082 27.7794 61.6825 27.9332 61.6726 28.1099Z" fill="#46A358"/>
<path d="M61.1497 31.0348C61.1199 31.2703 61.0868 31.5092 61.057 31.7447C61.0339 31.9181 61.11 32.0948 61.2953 32.1439C61.4542 32.1831 61.6759 32.085 61.6991 31.9083C61.7288 31.6727 61.7619 31.4339 61.7917 31.1984C61.8149 31.025 61.7388 30.8483 61.5534 30.7992C61.3946 30.7567 61.1728 30.8581 61.1497 31.0348Z" fill="#46A358"/>
<path d="M58.6808 29.013C58.6477 29.2126 58.6146 29.4155 58.5815 29.615C58.5517 29.7884 58.6377 29.9651 58.8198 30.0142C58.9819 30.0534 59.1937 29.952 59.2235 29.7786C59.2566 29.579 59.2897 29.3762 59.3228 29.1766C59.3526 29.0032 59.2665 28.8266 59.0845 28.7775C58.9224 28.7349 58.7105 28.8364 58.6808 29.013Z" fill="#46A358"/>
<path d="M59.1573 34.215C59.1606 34.359 59.164 34.5062 59.1673 34.6501C59.1772 35.0722 59.8391 35.0591 59.8292 34.637C59.8259 34.4931 59.8225 34.3459 59.8192 34.2019C59.8093 33.7799 59.1474 33.793 59.1573 34.215Z" fill="#46A358"/>
<path d="M61.2953 36.1354C61.2986 36.2794 61.3019 36.4266 61.3052 36.5705C61.3151 36.9926 61.977 36.9795 61.9671 36.5575C61.9638 36.4135 61.9605 36.2663 61.9572 36.1223C61.9473 35.7003 61.2853 35.7134 61.2953 36.1354Z" fill="#46A358"/>
<path d="M59.389 40.1008C59.4155 40.3559 59.389 40.5915 59.3063 40.8336C59.25 41.0005 59.3824 41.1902 59.5445 41.2328C59.7299 41.2786 59.8887 41.164 59.9483 40.9972C60.0476 40.706 60.084 40.3952 60.0509 40.0909C60.031 39.9143 59.902 39.767 59.7133 39.7703C59.5445 39.7703 59.3691 39.9241 59.389 40.1008Z" fill="#46A358"/>
<path d="M60.2064 18.6514C60.1204 18.8183 60.031 18.9851 59.945 19.1487C59.7497 19.5217 60.3256 19.8423 60.5241 19.4661C60.6102 19.2992 60.6995 19.1323 60.7856 18.9688C60.9809 18.5958 60.405 18.2752 60.2064 18.6514Z" fill="#46A358"/>
<path d="M43.04 12.4321C43.0996 12.7756 43.1625 13.1224 43.2221 13.4659C43.2518 13.6393 43.4769 13.7309 43.6324 13.6851C43.8211 13.6295 43.8873 13.4528 43.8542 13.2794C43.7946 12.9359 43.7317 12.5891 43.6721 12.2456C43.6424 12.0722 43.4173 11.9806 43.2618 12.0264C43.0731 12.082 43.0069 12.2587 43.04 12.4321Z" fill="#46A358"/>
<path d="M44.0262 14.5947C44.1785 14.9546 44.334 15.3178 44.4863 15.6777C44.5558 15.8412 44.7146 15.9525 44.8966 15.8969C45.0522 15.8511 45.1879 15.6548 45.1184 15.4912C44.9661 15.1313 44.8106 14.7681 44.6584 14.4083C44.5889 14.2447 44.43 14.1334 44.248 14.189C44.0924 14.2349 43.9567 14.4312 44.0262 14.5947Z" fill="#46A358"/>
<path d="M43.1227 15.8019C43.0466 16.3057 43.0532 16.7867 43.1426 17.284C43.2154 17.6962 43.8475 17.5097 43.778 17.0975C43.7118 16.7245 43.7118 16.3384 43.7681 15.9622C43.8243 15.55 43.1823 15.3864 43.1227 15.8019Z" fill="#46A358"/>
<path d="M44.3804 17.6929C44.4929 18.0004 44.6021 18.3112 44.7146 18.6187C44.8569 19.0146 45.4924 18.8314 45.3501 18.4323C45.2375 18.1247 45.1283 17.8139 45.0158 17.5064C44.8735 17.1105 44.2381 17.2937 44.3804 17.6929Z" fill="#46A358"/>
<path d="M42.8415 19.0016C42.8481 19.3648 42.858 19.7279 42.8646 20.0911C42.8746 20.5131 43.5365 20.5001 43.5265 20.078C43.5199 19.7148 43.51 19.3517 43.5034 18.9885C43.4968 18.5665 42.8349 18.5796 42.8415 19.0016Z" fill="#46A358"/>
<path d="M44.0825 20.2318C44.0891 20.559 44.0957 20.8862 44.1024 21.2134C44.1123 21.6354 44.7742 21.6223 44.7643 21.2003C44.7576 20.8731 44.751 20.5459 44.7444 20.2188C44.7345 19.7967 44.0726 19.8098 44.0825 20.2318Z" fill="#46A358"/>
<path d="M45.9326 20.8796C46.065 21.2591 46.2007 21.6387 46.333 22.0182C46.472 22.414 47.1075 22.2308 46.9685 21.8317C46.8361 21.4522 46.7004 21.0727 46.568 20.6931C46.429 20.2973 45.7936 20.4805 45.9326 20.8796Z" fill="#46A358"/>
<path d="M46.6573 24.1381C46.697 24.3376 46.74 24.5372 46.7798 24.7368C46.8162 24.9102 47.0313 25.0051 47.1901 24.956C47.3755 24.9004 47.4483 24.7237 47.4119 24.5503C47.3722 24.3507 47.3291 24.1511 47.2894 23.9516C47.253 23.7782 47.0379 23.6833 46.879 23.7324C46.697 23.7847 46.6209 23.9647 46.6573 24.1381Z" fill="#46A358"/>
<path d="M44.8405 24.1741C44.9497 24.4816 45.0291 24.7957 45.0655 25.1196C45.0854 25.2962 45.2144 25.4435 45.4031 25.4402C45.5686 25.4369 45.7473 25.2831 45.7274 25.1065C45.6844 24.7237 45.605 24.3507 45.4759 23.9876C45.3336 23.5917 44.6981 23.7749 44.8405 24.1741Z" fill="#46A358"/>
<path d="M43.1426 22.8688C43.1492 23.124 43.1526 23.3792 43.1592 23.6311C43.1691 24.0532 43.831 24.0401 43.8211 23.618C43.8145 23.3628 43.8111 23.1076 43.8045 22.8557C43.7946 22.4337 43.136 22.4468 43.1426 22.8688Z" fill="#46A358"/>
<path d="M43.9402 26.7785C43.9667 27.1056 44.0295 27.4263 44.1388 27.7338C44.2811 28.1297 44.9165 27.9464 44.7742 27.5473C44.6815 27.2921 44.6219 27.0337 44.6021 26.7654C44.5723 26.3466 43.9104 26.3597 43.9402 26.7785Z" fill="#46A358"/>
<path d="M45.3898 29.5628C45.4494 29.7623 45.5089 29.9619 45.5685 30.1582C45.6877 30.5606 46.3231 30.3774 46.2039 29.9717C46.1444 29.7721 46.0848 29.5758 46.0252 29.3763C45.9061 28.9739 45.2707 29.1571 45.3898 29.5628Z" fill="#46A358"/>
<path d="M46.1675 27.0368C46.2072 27.1808 46.2469 27.3247 46.2866 27.472C46.3991 27.8777 47.0346 27.6912 46.922 27.2855C46.8823 27.1415 46.8426 26.9976 46.8029 26.8504C46.6904 26.4447 46.0549 26.6311 46.1675 27.0368Z" fill="#46A358"/>
<path d="M44.2911 32.4777C44.3738 32.8015 44.4532 33.1287 44.536 33.4526C44.6386 33.8616 45.274 33.6751 45.1714 33.2661C45.0887 32.9422 45.0092 32.6151 44.9265 32.2912C44.8239 31.8822 44.1885 32.0687 44.2911 32.4777Z" fill="#46A358"/>
<path d="M45.9358 37.2412C45.9954 37.3852 46.0517 37.5291 46.1112 37.6731C46.1774 37.8367 46.3396 37.9479 46.5216 37.8923C46.6805 37.8465 46.8095 37.6502 46.7433 37.4866C46.6838 37.3426 46.6275 37.1987 46.5679 37.0547C46.5018 36.8912 46.3396 36.7799 46.1576 36.8355C45.9987 36.8813 45.8696 37.0776 45.9358 37.2412Z" fill="#46A358"/>
<path d="M67.4808 23.6833C67.3054 24.0334 67.1267 24.3802 66.9513 24.7303C66.7593 25.1065 67.3385 25.4271 67.5305 25.0476C67.7059 24.6976 67.8846 24.3508 68.06 24.0007C68.2519 23.6244 67.6728 23.3071 67.4808 23.6833Z" fill="#46A358"/>
<path d="M68.4074 24.5045C68.3247 24.8349 68.2387 25.1621 68.1559 25.4925C68.05 25.9015 68.6921 26.0618 68.798 25.6529C68.8807 25.3224 68.9667 24.9952 69.0495 24.6648C69.1521 24.2591 68.51 24.0988 68.4074 24.5045Z" fill="#46A358"/>
<path d="M67.5933 27.6323C67.5105 27.9071 67.4278 28.1819 67.3417 28.4567C67.2193 28.8624 67.8613 29.0195 67.9838 28.617C68.0665 28.3422 68.1493 28.0674 68.2353 27.7926C68.3545 27.3902 67.7124 27.2298 67.5933 27.6323Z" fill="#46A358"/>
<path d="M67.0374 26.3073C66.9679 26.4349 66.895 26.5658 66.8255 26.6934C66.6204 27.0631 67.1995 27.3837 67.4047 27.0107C67.4742 26.8831 67.547 26.7523 67.6165 26.6247C67.8217 26.2583 67.2425 25.9376 67.0374 26.3073Z" fill="#46A358"/>
<path d="M68.6722 26.4644C68.6424 26.7196 68.6126 26.9748 68.5829 27.2299C68.563 27.4066 68.6325 27.58 68.8211 27.6291C68.9767 27.6683 69.2017 27.5702 69.2249 27.3935C69.2547 27.1383 69.2845 26.8831 69.3143 26.628C69.3341 26.4513 69.2646 26.2779 69.076 26.2288C68.9171 26.1895 68.6921 26.2877 68.6722 26.4644Z" fill="#46A358"/>
<path d="M65.5546 28.1622C65.4884 28.3716 65.3891 28.5614 65.27 28.7446C65.0383 29.0979 65.6175 29.4153 65.8492 29.0619C66.0014 28.8329 66.1139 28.5843 66.1966 28.3225C66.2496 28.1557 66.1238 27.9659 65.9584 27.9234C65.773 27.8809 65.6076 27.9921 65.5546 28.1622Z" fill="#46A358"/>
<path d="M65.5348 30.9759C65.3925 31.2082 65.323 31.4732 65.3362 31.7447C65.356 32.1635 66.018 32.1537 65.9981 31.7316C65.9915 31.5681 66.0246 31.4339 66.1139 31.2965C66.3357 30.9334 65.7565 30.616 65.5348 30.9759Z" fill="#46A358"/>
<path d="M67.259 30.2563C67.1928 30.4755 67.1266 30.6979 67.0637 30.9171C66.9446 31.3228 67.5866 31.4799 67.7058 31.0775C67.772 30.8583 67.8382 30.6358 67.901 30.4166C68.0202 30.0109 67.3781 29.8538 67.259 30.2563Z" fill="#46A358"/>
<path d="M66.713 33.4821C66.6435 33.7209 66.5773 33.9565 66.5078 34.1953C66.392 34.601 67.034 34.7614 67.1499 34.3557C67.2194 34.1168 67.2855 33.8813 67.355 33.6424C67.4709 33.24 66.8288 33.0797 66.713 33.4821Z" fill="#46A358"/>
<path d="M68.8112 28.8362C68.7946 28.9834 68.7814 29.1274 68.7648 29.2746C68.745 29.4513 68.9402 29.5985 69.1024 29.5952C69.301 29.592 69.4069 29.4382 69.4267 29.2615C69.4433 29.1143 69.4565 28.9703 69.4731 28.8231C69.4929 28.6464 69.2977 28.4992 69.1355 28.5025C68.9369 28.509 68.831 28.6595 68.8112 28.8362Z" fill="#46A358"/>
<path d="M64.6545 35.3796C64.6214 35.4909 64.585 35.5988 64.5519 35.7101C64.4261 36.1125 65.0682 36.2728 65.1939 35.8704C65.227 35.7591 65.2634 35.6512 65.2965 35.5399C65.4223 35.1375 64.7802 34.9805 64.6545 35.3796Z" fill="#46A358"/>
<path d="M64.1217 38.7199C64.0522 38.9032 63.9794 39.0864 63.9099 39.2696C63.847 39.4332 63.9893 39.6262 64.1482 39.6687C64.3401 39.7178 64.4857 39.5967 64.5519 39.4332C64.6214 39.2499 64.6942 39.0667 64.7637 38.8835C64.8266 38.7199 64.6843 38.5269 64.5254 38.4844C64.3335 38.4353 64.1879 38.5531 64.1217 38.7199Z" fill="#46A358"/>
<path d="M66.7262 37.3886C66.7295 37.4965 66.7295 37.6078 66.7328 37.7157C66.7427 38.1378 67.4046 38.1247 67.3947 37.7027C67.3914 37.5947 67.3914 37.4835 67.3881 37.3755C67.3782 36.9535 66.7163 36.9665 66.7262 37.3886Z" fill="#46A358"/>
<path d="M65.4918 41.7234C65.4753 41.8706 65.462 42.0146 65.4455 42.1618C65.4256 42.3385 65.6209 42.4857 65.7831 42.4824C65.9816 42.4792 66.0875 42.3254 66.1074 42.1487C66.1239 42.0015 66.1372 41.8576 66.1537 41.7103C66.1736 41.5337 65.9783 41.3864 65.8162 41.3897C65.6209 41.393 65.5117 41.5467 65.4918 41.7234Z" fill="#46A358"/>
<path d="M35.2594 28.0804C35.3157 28.2603 35.3752 28.4435 35.4315 28.6235C35.5572 29.0259 36.1927 28.8394 36.0669 28.437C36.0106 28.2571 35.9511 28.0739 35.8948 27.8939C35.7657 27.4915 35.1303 27.678 35.2594 28.0804Z" fill="#46A358"/>
<path d="M35.9411 27.3379C36.1629 27.6094 36.3879 27.881 36.6097 28.1492C36.7222 28.2867 36.9638 28.2572 37.0763 28.1394C37.212 27.9987 37.1789 27.8155 37.0664 27.6781C36.8446 27.4066 36.6196 27.135 36.3979 26.8667C36.2853 26.7293 36.0437 26.7588 35.9312 26.8766C35.7955 27.014 35.8286 27.2005 35.9411 27.3379Z" fill="#46A358"/>
<path d="M37.212 29.6413C37.4039 29.9096 37.5959 30.1779 37.7845 30.4429C38.0294 30.7864 38.5954 30.4461 38.3504 30.1026C38.1585 29.8343 37.9665 29.5661 37.7779 29.301C37.5297 28.9575 36.9638 29.2945 37.212 29.6413Z" fill="#46A358"/>
<path d="M36.3979 30.423C36.5501 30.675 36.7023 30.9269 36.8546 31.1788C37.073 31.5387 37.6389 31.1984 37.4205 30.8386C37.2683 30.5866 37.116 30.3347 36.9638 30.0828C36.742 29.7196 36.1794 30.0599 36.3979 30.423Z" fill="#46A358"/>
<path d="M37.8805 33.1221C38.0725 33.4624 38.2677 33.8026 38.4597 34.1429C38.6682 34.5093 39.2341 34.1691 39.0256 33.8026C38.8337 33.4624 38.6384 33.1221 38.4465 32.7819C38.2346 32.4155 37.672 32.7557 37.8805 33.1221Z" fill="#46A358"/>
<path d="M38.4663 32.1308C38.5987 32.3271 38.7311 32.5266 38.8634 32.7229C39.0984 33.073 39.6643 32.7327 39.4294 32.3827C39.297 32.1864 39.1646 31.9868 39.0322 31.7905C38.7939 31.4404 38.228 31.7774 38.4663 32.1308Z" fill="#46A358"/>
<path d="M38.7741 30.7568C38.8833 30.9891 39.0686 31.169 39.2903 31.2999C39.661 31.5125 39.982 30.94 39.6114 30.7273C39.479 30.6521 39.3996 30.5507 39.3367 30.4165C39.2606 30.2562 39.0223 30.2235 38.88 30.3086C38.7178 30.41 38.6979 30.5965 38.7741 30.7568Z" fill="#46A358"/>
<path d="M36.2919 32.4742C36.3349 32.6542 36.3746 32.8341 36.4176 33.0173C36.4573 33.1907 36.6658 33.2856 36.828 33.2365C37.01 33.1842 37.0895 33.001 37.0497 32.8309C37.0067 32.6509 36.967 32.471 36.924 32.2878C36.8843 32.1144 36.6758 32.0195 36.5136 32.0686C36.3316 32.1209 36.2522 32.3041 36.2919 32.4742Z" fill="#46A358"/>
<path d="M38.3802 35.8934C38.5325 36.2009 38.6847 36.5084 38.8336 36.8127C38.9131 36.973 39.148 37.0057 39.2903 36.9207C39.4558 36.8225 39.479 36.6295 39.3996 36.4692C39.2473 36.1616 39.0951 35.8541 38.9462 35.5498C38.8667 35.3895 38.6317 35.3568 38.4894 35.4419C38.324 35.5433 38.3008 35.7363 38.3802 35.8934Z" fill="#46A358"/>
<path d="M40.8525 34.9676C40.9683 35.1835 41.0808 35.3995 41.1966 35.6154C41.3952 35.9884 41.9578 35.6448 41.7626 35.2751C41.6467 35.0592 41.5342 34.8433 41.4184 34.6274C41.2165 34.2544 40.6539 34.5946 40.8525 34.9676Z" fill="#46A358"/>
<path d="M41.6071 39.6461C41.703 39.826 41.799 40.006 41.8983 40.1826C42.1002 40.5556 42.6628 40.2121 42.4642 39.8424C42.3682 39.6624 42.2723 39.4825 42.173 39.3058C41.9711 38.9329 41.4052 39.2731 41.6071 39.6461Z" fill="#46A358"/>
<path d="M42.7819 37.9873C42.8944 38.1672 43.0103 38.3472 43.1228 38.5271C43.3478 38.8837 43.9138 38.5435 43.6887 38.1868C43.5762 38.0069 43.4603 37.827 43.3478 37.647C43.1195 37.2904 42.5535 37.6307 42.7819 37.9873Z" fill="#46A358"/>
<path d="M44.099 43.0321C44.1917 43.1956 44.2877 43.356 44.3803 43.5195C44.5921 43.886 45.1548 43.5424 44.9463 43.1793C44.8536 43.0157 44.7576 42.8554 44.6649 42.6918C44.4531 42.3254 43.8872 42.6656 44.099 43.0321Z" fill="#46A358"/>
<path d="M33.4259 41.0102C33.6476 41.1149 33.8727 41.2163 34.0944 41.321C34.4783 41.5009 34.8026 40.9284 34.4154 40.7484C34.1937 40.6438 33.9687 40.5423 33.7469 40.4376C33.3663 40.261 33.042 40.8302 33.4259 41.0102Z" fill="#46A358"/>
<path d="M35.5341 41.9621C35.779 42.1355 36.0239 42.3122 36.2655 42.4856C36.4111 42.5903 36.6361 42.5019 36.7156 42.358C36.8115 42.1879 36.7321 42.0177 36.5865 41.913C36.3416 41.7396 36.0967 41.563 35.8551 41.3896C35.7095 41.2849 35.4844 41.3732 35.405 41.5172C35.3123 41.6873 35.3918 41.8574 35.5341 41.9621Z" fill="#46A358"/>
<path d="M35.2098 40.9611C35.3786 40.9971 35.5341 41.0527 35.6863 41.1378C36.0603 41.3406 36.3813 40.7681 36.0074 40.5652C35.8088 40.4573 35.5937 40.3755 35.3719 40.3264C34.9582 40.2348 34.7928 40.8695 35.2098 40.9611Z" fill="#46A358"/>
<path d="M37.1491 42.3581C37.298 42.4628 37.4469 42.5708 37.5959 42.6755C37.7415 42.7769 37.9665 42.6918 38.046 42.5479C38.1419 42.3778 38.0625 42.2044 37.9169 42.1029C37.768 41.9982 37.619 41.8903 37.4701 41.7856C37.3245 41.6842 37.0994 41.7692 37.02 41.9132C36.9273 42.0833 37.0035 42.2534 37.1491 42.3581Z" fill="#46A358"/>
<path d="M37.1028 43.3364C37.1789 43.4443 37.255 43.5523 37.3311 43.6602C37.5727 44.0038 38.1387 43.6668 37.8971 43.32C37.8209 43.212 37.7448 43.1041 37.6687 42.9961C37.4271 42.6493 36.8579 42.9895 37.1028 43.3364Z" fill="#46A358"/>
<path d="M38.602 43.8632C38.7509 43.9875 38.8999 44.1118 39.0521 44.2361C39.1878 44.3506 39.3897 44.3605 39.5187 44.2263C39.6379 44.1053 39.6478 43.8763 39.5088 43.765C39.3599 43.6407 39.211 43.5164 39.0587 43.392C38.923 43.2775 38.7212 43.2677 38.5921 43.4019C38.4729 43.5196 38.463 43.7487 38.602 43.8632Z" fill="#46A358"/>
<path d="M72.7628 34.2249C72.4086 34.1595 72.0578 34.166 71.707 34.2543C71.2933 34.359 71.482 34.9872 71.8957 34.8825C72.1273 34.8236 72.3623 34.8138 72.5973 34.8596C73.0176 34.9381 73.1798 34.3034 72.7628 34.2249Z" fill="#46A358"/>
<path d="M70.4793 34.9019C70.3535 34.9967 70.2244 35.0883 70.0987 35.1832C69.9564 35.2879 69.8902 35.4711 69.9895 35.6347C70.0755 35.7754 70.3006 35.8506 70.4462 35.7427C70.5719 35.6478 70.701 35.5562 70.8268 35.4613C70.9691 35.3566 71.0353 35.1734 70.936 35.0098C70.8499 34.8691 70.6249 34.7972 70.4793 34.9019Z" fill="#46A358"/>
<path d="M70.5851 34.5814C71.012 34.5716 70.9988 33.9173 70.5718 33.9271C70.1449 33.9369 70.1581 34.5913 70.5851 34.5814Z" fill="#46A358"/>
</g>
<g clip-path="url(#clip1_99640_305)">
<path d="M37.3859 47.6161C35.0447 53.6307 33.3971 59.916 32.8568 66.3706C32.3966 71.8876 32.5367 77.8378 35.5583 82.6508C35.9051 83.2025 36.7589 82.6745 36.412 82.1194C33.3804 77.2929 33.3871 71.2377 33.9141 65.7241C34.501 59.5809 36.1285 53.5935 38.3564 47.8666C38.5898 47.2607 37.6193 47.017 37.3859 47.6161Z" fill="#727272"/>
<path d="M67.7884 46.6852C73.1145 50.7468 73.1212 58.1931 73.6948 64.3058C73.9849 67.3892 74.3852 70.4828 74.5252 73.5798C74.6553 76.4094 74.4218 79.415 72.214 81.4187C71.7338 81.8553 72.4575 82.5559 72.9344 82.1227C74.8787 80.3593 75.4791 77.8343 75.5458 75.2721C75.6425 71.6235 75.0322 67.9139 74.692 64.2889C74.095 57.9189 74.0216 50.1816 68.4787 45.9541C67.9718 45.5649 67.2748 46.2926 67.7884 46.6852Z" fill="#727272"/>
<path d="M35.7583 82.8539C38.5831 83.8862 41.4713 84.1435 44.4428 84.3973C47.7312 84.6783 51.0496 85.1013 54.3547 84.9829C57.7098 84.8644 61.0749 84.3804 64.4099 84.0149C67.3281 83.6933 70.223 83.2872 72.9444 82.1093C73.528 81.8554 73.2512 80.8773 72.6576 81.1345C69.8361 82.3564 66.8412 82.7355 63.8163 83.0604C60.668 83.3988 57.4996 83.8558 54.3347 83.9675C51.233 84.0792 48.1248 83.6967 45.0365 83.4361C41.9582 83.1721 38.9366 82.9419 36.0051 81.8724C35.3981 81.6456 35.158 82.6339 35.7583 82.8539Z" fill="#727272"/>
<path d="M37.626 48.1846C39.9538 49.1493 42.3318 50.0022 44.8431 50.3034C47.4544 50.6148 50.1158 50.1681 52.7439 50.2358C54.2013 50.273 55.512 50.4727 56.9827 50.2594C58.2501 50.0733 59.5174 49.8161 60.748 49.4607C63.2994 48.7228 65.7707 47.6939 68.2753 46.8071C68.8789 46.5938 68.5988 45.6191 67.9885 45.8323C63.0859 47.5686 58.4902 49.596 53.1974 49.2474C50.9963 49.1019 48.8051 49.4302 46.6107 49.4099C43.6558 49.3794 40.8143 48.4182 38.1062 47.2979C37.5226 47.0542 37.029 47.9376 37.626 48.1846Z" fill="#727272"/>
<path d="M7.66372 51.2411C13.2666 52.1346 18.4794 54.8254 22.3847 59.019C26.1634 63.0772 28.2878 68.425 32.41 72.1921C32.8869 72.6288 33.5839 71.8977 33.1037 71.4611C28.7347 67.4671 26.5502 61.6895 22.3481 57.5365C18.4127 53.6475 13.3233 51.1192 7.91052 50.2561C7.27685 50.1546 7.02672 51.1395 7.66372 51.2411Z" fill="#727272"/>
<path d="M8.53746 49.4234C13.6235 48.2455 19.0296 48.9461 23.5987 51.5422C27.2439 53.6136 30.2355 56.8866 34.5877 57.3333C35.2281 57.3976 35.2014 56.3822 34.5677 56.3179C29.6852 55.817 26.1633 51.3526 21.761 49.5181C17.4688 47.731 12.763 47.4061 8.25398 48.4486C7.62365 48.5941 7.91047 49.5689 8.53746 49.4234Z" fill="#727272"/>
<path d="M7.72372 48.743C7.34019 49.2778 7.09339 49.904 7.00668 50.5572C6.96999 50.8314 7.08672 51.0988 7.3702 51.1732C7.60699 51.2375 7.9405 51.0785 7.97719 50.8043C8.05389 50.2221 8.25733 49.7111 8.59751 49.2338C8.75759 49.0104 8.61752 48.6686 8.40408 48.5433C8.14727 48.3978 7.88047 48.523 7.72372 48.743Z" fill="#727272"/>
<path d="M71.8106 49.6706C73.8783 45.653 80.4484 45.1351 84.157 46.9764C88.1758 48.9733 90.0301 53.81 88.3825 58.0409C86.9485 61.7268 83.2632 63.5308 80.2316 65.6564C78.9543 66.5533 77.5335 67.5619 76.6497 68.8853C75.7259 70.2697 75.846 72.0297 74.9322 73.4106C74.572 73.9556 75.4491 74.443 75.806 73.9048C76.3829 73.0349 76.5497 72.1075 76.8065 71.1124C77.17 69.7213 77.8971 68.8278 78.9409 67.9173C80.7385 66.3502 82.8463 65.2164 84.7606 63.8117C88.1491 61.324 90.527 57.7904 89.8967 53.3632C89.3197 49.3321 86.1247 45.9982 82.1793 45.2637C78.2039 44.5225 72.9645 45.2367 70.9334 49.1798C70.6366 49.7552 71.5104 50.2494 71.8106 49.6706Z" fill="#727272"/>
<path d="M72.8244 52.2261C74.2085 49.4236 77.3601 48.6993 80.2216 48.9227C82.1293 49.0716 83.3066 49.8331 84.3038 51.495C85.4077 53.3295 85.3543 54.8831 84.7306 56.8394C83.7501 59.9059 81.9825 61.3275 79.2645 62.766C77.4835 63.7069 74.7654 64.9389 74.0551 67.0205C73.845 67.6399 74.8155 67.8836 75.0256 67.2709C75.6726 65.3755 78.8476 64.1435 80.4818 63.2669C81.8992 62.5087 83.2265 61.6727 84.1837 60.3358C85.6978 58.2237 86.9418 54.7748 85.8446 52.2735C84.5039 49.2137 82.4528 47.8565 79.1777 47.8802C76.2629 47.9005 73.3247 48.9565 71.954 51.7319C71.6638 52.3141 72.5376 52.8083 72.8244 52.2261Z" fill="#727272"/>
<path d="M54.3081 59.5706C51.3666 60.014 48.8819 62.2344 48.5851 65.3381C48.3016 68.2963 50.2693 72.148 53.6111 71.9213C56.6593 71.7148 59.3674 68.716 59.6475 65.7172C59.9577 62.4171 57.5198 59.5402 54.208 59.6857C53.5644 59.7128 53.5844 60.7282 54.228 60.7011C57.1329 60.5725 59.1339 63.2667 58.5903 66.103C58.1501 68.3978 55.969 70.7129 53.591 70.9093C50.6695 71.1496 49.1787 67.396 49.6423 64.959C50.0859 62.6236 52.0569 60.9313 54.3281 60.5894C54.9551 60.4912 54.9451 59.4725 54.3081 59.5706Z" fill="#727272"/>
<path d="M54.8817 60.014C54.7049 57.8614 58.0366 54.5884 59.7042 57.0795C60.2211 57.8512 60.7214 59.222 60.5079 60.1731C60.2778 61.1919 59.294 61.9534 58.5402 62.5796C58.0433 62.9925 58.7704 63.6932 59.2606 63.2836C60.4479 62.2987 61.6685 61.1174 61.5552 59.4285C61.4618 58.0475 60.708 56.2266 59.5208 55.4684C56.9861 53.8472 53.6777 57.5601 53.8811 60.0377C53.9345 60.6842 54.935 60.6673 54.8817 60.014Z" fill="#727272"/>
<path d="M59.5274 63.5104C60.7814 62.7556 64.0264 62.9553 63.6896 65.135C63.3694 67.2132 60.718 67.2978 59.1472 67.3181C58.5035 67.3249 58.5235 68.3403 59.1672 68.3335C61.3717 68.3065 65.227 67.6025 64.6767 64.4378C64.2432 61.9534 60.788 61.5676 59.0038 62.6439C58.4501 62.979 58.9704 63.8455 59.5274 63.5104Z" fill="#727272"/>
<path d="M58.5203 68.5196C60.2745 69.3048 62.2489 71.6369 60.5814 73.5188C58.6304 75.7188 55.8089 73.5425 55.0885 71.4203C54.8784 70.8043 53.9179 71.0886 54.128 71.7113C55.0618 74.4529 58.4269 76.8222 61.0216 74.4969C63.5429 72.2394 61.5385 68.7667 59.0072 67.6294C58.4236 67.3688 57.9333 68.2556 58.5203 68.5196Z" fill="#727272"/>
<path d="M53.6476 71.6743C53.7377 73.3802 53.2674 75.9187 51.0063 75.6141C49.9791 75.4753 49.1886 74.5378 49.2353 73.475C49.2754 72.5205 49.939 71.407 50.3026 70.5337C50.5494 69.938 49.6789 69.4371 49.4288 70.0395C48.8985 71.319 47.978 72.8116 48.3182 74.2568C48.595 75.4279 49.5055 76.3587 50.6728 76.5923C53.651 77.1913 54.7749 74.0741 54.6482 71.6506C54.6148 71.0008 53.6143 71.0177 53.6476 71.6743Z" fill="#727272"/>
<path d="M50.1659 69.2713C48.3016 70.0531 45.4234 69.8534 44.7731 67.4808C44.4896 66.4383 44.8064 65.2063 45.7703 64.641C46.7074 64.0927 47.9181 64.2383 48.9386 64.3635C49.5689 64.4414 49.8224 63.4564 49.1854 63.3786C47.7713 63.2059 46.1671 63.0536 44.9498 63.9743C43.9393 64.7392 43.5291 66.0795 43.7225 67.3149C44.2228 70.5067 47.9014 71.3088 50.4494 70.2427C51.043 69.999 50.7629 69.0208 50.1659 69.2713Z" fill="#727272"/>
<path d="M49.5456 63.4934C47.8613 62.5795 46.9809 59.2219 48.4583 57.7699C50.3993 55.8644 52.7839 58.5653 53.9579 60.0275C54.3647 60.5318 55.0518 59.7973 54.6516 59.2964C53.1174 57.3875 49.799 54.4665 47.5312 57.2182C45.8636 59.2456 46.8608 63.1888 49.0586 64.3836C49.6256 64.6916 50.1159 63.8048 49.5456 63.4934Z" fill="#727272"/>
<path d="M51.1531 70.9566C50.3627 71.7283 49.8491 73.8167 51.0631 74.4496C52.5172 75.2112 53.1608 72.6219 53.3543 71.6877C53.441 71.2613 52.794 71.0954 52.7073 71.5219C52.6205 71.945 52.5105 72.3613 52.3571 72.7674C52.2804 72.9671 52.197 73.1668 52.0969 73.3564C51.9435 73.6508 51.8535 73.8404 51.5 73.7998C50.5461 73.6813 51.1998 71.8502 51.6367 71.4271C51.9435 71.1225 51.4633 70.6554 51.1531 70.9566Z" fill="#727272"/>
<path d="M55.452 71.004C55.2819 71.9788 56.3691 72.7438 57.1462 73.0924C57.9333 73.4444 59.0305 73.5629 59.7676 73.0111C60.4713 72.4831 60.3612 71.5253 60.0577 70.7942C59.6442 69.7991 58.7937 69.1289 57.8099 68.7769C57.403 68.6314 57.2429 69.2914 57.6465 69.4336C58.2401 69.6468 58.7737 70.0056 59.1506 70.5268C59.2806 70.7096 59.3807 70.9025 59.4641 71.1124C59.6575 71.6065 59.6875 71.8299 59.344 72.2598C59.0505 72.6253 58.8971 72.7099 58.4502 72.7133C58.1701 72.7133 57.8799 72.6558 57.6164 72.561C57.2129 72.4154 55.9956 71.7724 56.099 71.1767C56.1724 70.7434 55.5287 70.5742 55.452 71.004Z" fill="#727272"/>
<path d="M59.3207 66.6243C60.1578 66.8376 60.9915 66.472 61.6952 66.0219C62.2088 65.6936 62.8859 65.0945 62.8258 64.4006C62.7758 63.8218 62.2088 63.5477 61.7019 63.4868C60.8281 63.3784 59.971 63.7609 59.2606 64.2415C58.9038 64.4818 59.2506 65.064 59.6075 64.8203C59.9777 64.5665 60.3712 64.3431 60.8081 64.2314C61.2117 64.1265 62.3856 63.9572 62.0287 64.8068C61.7153 65.5616 60.1945 66.1471 59.4841 65.9677C59.0672 65.8628 58.9038 66.5194 59.3207 66.6243Z" fill="#727272"/>
<path d="M56.209 60.3054C56.1556 59.7909 56.2624 59.2798 56.6292 58.9007C56.896 58.6198 57.543 58.2475 57.9232 58.4641C58.2601 58.6571 58.2367 59.4694 58.2367 59.8451C58.2334 60.3832 58.12 60.8943 57.9432 61.3986C57.7998 61.8082 58.4468 61.9706 58.5903 61.5645C58.8771 60.7454 58.9771 59.8857 58.8404 59.0226C58.747 58.4303 58.647 57.8413 57.9899 57.7533C56.5358 57.5537 55.4053 58.9244 55.5487 60.3223C55.5853 60.7488 56.2524 60.7386 56.209 60.3054Z" fill="#727272"/>
<path d="M50.0158 62.5695C49.4988 61.9095 49.0553 60.7113 49.2287 59.8618C49.3321 59.3473 49.4522 59.1984 49.9791 59.1442C50.506 59.0901 50.6361 59.2491 51.0163 59.5605C51.4032 59.8753 51.78 60.2002 52.1636 60.5184C52.4937 60.7925 52.9573 60.3085 52.6238 60.031C51.6833 59.2458 50.1725 57.435 48.9752 58.8125C48.0481 59.8821 48.6717 61.9399 49.4455 62.9249C49.709 63.26 50.2826 62.9113 50.0158 62.5695Z" fill="#727272"/>
<path d="M48.8185 65.2062C47.5178 64.6782 45.8202 65.8527 46.0203 67.3352C46.2071 68.7398 48.4383 69.2611 49.4421 68.469C49.7756 68.205 49.4321 67.6229 49.0953 67.8903C48.5483 68.3235 47.1876 68.2084 46.7874 67.562C46.2004 66.6244 47.6312 65.4432 48.4983 65.7985C48.8885 65.9576 49.2153 65.3687 48.8185 65.2062Z" fill="#727272"/>
</g>
<defs>
<clipPath id="clip0_99640_305">
<rect width="44" height="49" fill="white" transform="translate(31 -0.000244141)"/>
</clipPath>
<clipPath id="clip1_99640_305">
<rect width="83" height="40" fill="white" transform="translate(7 44.9998)"/>
</clipPath>
</defs>
</svg>
