<svg width="77" height="95" viewBox="0 0 77 95" fill="none" xmlns="http://www.w3.org/2000/svg">
<circle cx="37" cy="57.9998" r="37" fill="#46A358" fill-opacity="0.13"/>
<g clip-path="url(#clip0_99640_303)">
<path d="M28.1293 46.3567C40.7023 48.0203 53.3918 48.2817 66.0231 47.1366C66.8795 47.06 66.8885 45.7075 66.0231 45.7841C53.3918 46.9293 40.7023 46.6678 28.1293 45.0042C27.2773 44.8915 27.2818 46.2485 28.1293 46.3567Z" fill="#727272"/>
<path d="M31.0304 92.0305C36.465 92.7248 41.9354 93.0629 47.4147 92.9863C52.235 92.9186 57.9251 93.1305 62.4449 91.2235C63.2296 90.8899 62.8843 89.5825 62.0862 89.9206C57.4498 91.8772 51.5086 91.6112 46.5493 91.6428C41.3569 91.6788 36.178 91.3362 31.0259 90.678C30.174 90.5698 30.1785 91.9223 31.0304 92.0305Z" fill="#727272"/>
<path d="M27.6047 45.3153C21.3316 51.167 18.4081 59.8906 19.0986 68.3978C19.4529 72.7934 20.6904 77.0673 22.5513 81.0526C24.2462 84.6863 26.7438 89.8934 30.4923 91.7824C31.2636 92.1701 31.9451 91.007 31.1694 90.6148C27.6809 88.8565 25.3089 83.7937 23.7126 80.3719C21.8563 76.382 20.6411 72.0495 20.39 67.6449C19.9416 59.7058 22.7127 51.7216 28.5597 46.271C29.1965 45.6804 28.2414 44.7247 27.6047 45.3153Z" fill="#727272"/>
<path d="M65.5478 46.9519C72.1661 51.1221 72.7893 60.1162 72.6279 67.1987C72.4486 75.0973 71.4755 87.6124 62.0862 89.9206C61.2477 90.128 61.6019 91.4309 62.4449 91.2235C72.2468 88.8161 73.6547 76.3957 73.9507 68.0373C74.2242 60.2154 73.5337 50.3872 66.2248 45.7843C65.4895 45.3244 64.8169 46.4921 65.5478 46.9519Z" fill="#727272"/>
<path d="M32.5774 46.3658C27.6406 51.7081 25.4614 60.6301 26.2954 67.7848C26.7797 71.946 28.089 76.0756 29.062 80.1376C30.0395 84.2086 31.0484 88.248 33.2634 91.8411C33.7208 92.5805 34.8821 91.8997 34.4248 91.1604C32.3442 87.7882 31.3757 84.0192 30.4565 80.2007C29.5687 76.5219 28.5329 72.8386 27.8468 69.1192C26.5465 62.0367 28.5822 52.6774 33.528 47.3216C34.1154 46.6814 33.1648 45.7256 32.5774 46.3658Z" fill="#727272"/>
<path d="M39.2405 46.9292C35.5637 53.4392 33.6311 60.8328 33.7297 68.3257C33.7791 71.9233 34.2902 75.5254 35.2677 78.9878C36.4829 83.2842 38.3303 87.3597 39.1374 91.7734C39.2943 92.63 40.5902 92.2648 40.4332 91.4127C39.7292 87.5491 38.2361 83.9515 37.0478 80.2276C35.8955 76.6119 35.2049 72.8836 35.0884 69.083C34.8552 61.5677 36.7116 54.1425 40.4018 47.61C40.8323 46.8526 39.6709 46.1718 39.2405 46.9292Z" fill="#727272"/>
<path d="M43.2043 48.2232C44.4822 55.734 42.9308 63.2584 43.0608 70.8008C43.1191 74.2452 43.8858 77.4506 44.3342 80.8408C44.8006 84.3618 44.0024 87.982 43.5675 91.4759C43.4599 92.337 44.8051 92.328 44.9127 91.4759C45.3521 87.9504 46.1458 84.3032 45.6794 80.7507C45.2041 77.117 44.4015 73.6726 44.397 69.9758C44.388 62.5776 45.7512 55.2336 44.5001 47.867C44.3522 47.0104 43.0563 47.3711 43.2043 48.2232Z" fill="#727272"/>
<path d="M48.2487 47.5965C50.6118 54.3815 50.8987 61.5407 51.1364 68.6594C51.3965 76.3911 51.0108 84.0011 49.576 91.6112C49.4146 92.4632 50.7104 92.8284 50.8718 91.9718C52.3291 84.2446 52.7461 76.5083 52.4816 68.6594C52.2394 61.4235 51.9435 54.1291 49.5446 47.2359C49.2621 46.4244 47.9618 46.776 48.2487 47.5965Z" fill="#727272"/>
<path d="M53.9075 47.6281C54.4052 49.1564 55.4813 50.1753 56.3064 51.5188C57.248 53.0516 57.7637 54.7873 58.0417 56.5546C58.647 60.4137 58.36 64.4531 58.3511 68.3438C58.3421 72.5771 58.6649 77.0539 57.5753 81.188C56.6158 84.8172 54.4142 87.946 53.6788 91.6518C53.5084 92.5039 54.8043 92.8645 54.9747 92.0125C55.7638 88.0451 58.2031 84.6864 59.064 80.7372C59.9473 76.6977 59.6873 72.4509 59.6962 68.3438C59.7052 64.5478 59.9339 60.6662 59.4362 56.8927C59.2165 55.2246 58.8398 53.5746 58.1224 52.0508C57.3242 50.3511 55.7862 49.0573 55.2078 47.272C54.9343 46.4469 53.634 46.7986 53.9075 47.6281Z" fill="#727272"/>
<path d="M60.4495 47.4161C63.1219 49.9408 64.4088 53.9712 65.3729 57.4516C66.3773 61.0763 66.041 64.9444 65.8168 68.6548C65.3639 76.1836 64.0994 83.7035 60.5078 90.4119C60.0953 91.1783 61.2566 91.8636 61.6692 91.0926C65.4984 83.9379 66.7764 75.8951 67.2023 67.8703C67.4176 63.8309 67.5924 59.8861 66.3324 55.9954C65.2384 52.6187 64.0322 48.9489 61.4001 46.4558C60.7724 45.8652 59.8173 46.821 60.4495 47.4161Z" fill="#727272"/>
<path d="M32.4697 50.7974C32.3307 51.1536 32.1783 51.5052 32.0124 51.8524C31.8016 52.2897 32.0482 52.8893 32.5953 52.8713C32.9854 52.8577 33.2948 52.6819 33.5728 52.4159C33.6625 52.3303 33.7521 52.2401 33.8373 52.1544C33.9494 52.0417 33.8015 52.2221 33.8867 52.1184C33.8687 52.1454 33.7746 52.1364 33.8598 52.1454C33.6445 51.8614 33.4293 51.5729 33.2096 51.2888C33.1513 51.5909 33.0885 51.893 33.0302 52.1995C32.9585 52.5557 33.1334 52.9299 33.501 53.0336C33.8329 53.1237 34.2588 52.9209 34.3306 52.5602C34.3889 52.2581 34.4516 51.9561 34.5099 51.6495C34.5996 51.1897 34.3171 50.838 33.8598 50.7929C33.4876 50.7569 33.1513 50.9552 32.8867 51.1987C32.7926 51.2843 32.7119 51.3745 32.6177 51.4602C32.5863 51.4872 32.5594 51.5143 32.528 51.5413C32.5415 51.5278 32.5549 51.5188 32.5684 51.5052C32.5011 51.5413 32.5011 51.5458 32.5774 51.5143C32.5011 51.5323 32.5056 51.5368 32.5908 51.5143C32.7836 51.8524 32.9764 52.1905 33.1737 52.5331C33.3889 52.0823 33.5862 51.6225 33.7656 51.1581C33.8956 50.8155 33.6221 50.4142 33.2948 50.3241C32.9181 50.2204 32.6043 50.4548 32.4697 50.7974Z" fill="#727272"/>
<path d="M29.1382 58.8899C29.0754 59.2686 29.0127 59.6473 28.9499 60.0215C28.9006 60.3236 28.9813 60.6211 29.2593 60.7834C29.5059 60.9277 29.8781 60.9006 30.0754 60.6797C30.2054 60.5309 30.3354 60.3822 30.4655 60.2334C30.5506 60.1342 30.6717 59.9494 30.7748 59.8953C30.6627 59.9268 30.5506 59.9584 30.4341 59.9854C30.4565 59.9809 30.4834 59.9809 30.5058 59.9764C30.3937 59.9449 30.2816 59.9133 30.165 59.8863C30.183 59.8998 30.2009 59.9133 30.2188 59.9268C30.1067 59.733 29.9946 59.5391 29.887 59.3407C29.9229 59.7285 29.8153 60.1613 29.7704 60.5535C29.7077 61.117 30.3758 61.3244 30.7838 61.1396C31.3129 60.8916 31.6672 60.4363 31.8555 59.8908C31.4788 59.9899 31.1067 60.0891 30.73 60.1883C30.7166 60.1026 30.7031 60.017 30.6897 59.9313C30.4699 60.7744 31.7703 61.1351 31.9855 60.292C32.0842 59.9088 31.9945 59.4895 31.6806 59.2325C31.277 58.9034 30.7345 59.0207 30.5551 59.5301C30.4744 59.7555 30.3085 59.8727 30.1023 59.9719C30.4386 60.1658 30.7748 60.3596 31.1156 60.558C31.1829 59.9539 31.5057 58.8809 30.6807 58.651C29.9857 58.4571 29.4969 59.2866 29.1203 59.724C29.4969 59.9449 29.8691 60.1613 30.2457 60.3822C30.3085 60.0035 30.3713 59.6248 30.4341 59.2506C30.4924 58.8899 30.3399 58.5202 29.9633 58.4165C29.6449 58.3309 29.1965 58.5292 29.1382 58.8899Z" fill="#727272"/>
<path d="M28.5597 67.0365C28.6046 67.5684 28.6539 68.1004 28.6987 68.6279C28.766 69.3808 29.7749 69.5566 30.0215 68.8082C30.156 68.3935 30.3443 68.0193 30.582 67.6496C30.174 67.5955 29.7614 67.5414 29.3534 67.4873C29.5103 67.8795 29.6179 68.2807 29.6762 68.7045C29.7435 69.1824 30.3219 69.2636 30.6627 69.1103C30.8331 69.0336 30.9721 68.8849 31.0618 68.7226C31.1021 68.6504 31.1335 68.5648 31.1604 68.4881C31.1739 68.4476 31.1828 68.407 31.1963 68.3664C31.2187 68.2988 31.2097 68.3033 31.1784 68.3799C31.0797 68.4385 30.9811 68.4971 30.8824 68.5558C30.9048 68.5467 30.9317 68.5422 30.9542 68.5332C30.8331 68.5332 30.7165 68.5332 30.5954 68.5332C30.5865 68.5287 30.5775 68.5242 30.573 68.5152C30.4923 68.434 30.4116 68.3529 30.3309 68.2717C30.3443 68.2898 30.3533 68.3078 30.3668 68.3258C30.3443 68.15 30.3219 67.9787 30.2995 67.8029C30.295 67.8254 30.295 67.8479 30.2905 67.866C30.2412 68.2266 30.3757 68.5918 30.7614 68.7C31.0752 68.7857 31.5416 68.5918 31.5909 68.2266C31.6312 67.9336 31.6088 67.6676 31.3936 67.4467C31.2142 67.2664 30.9407 67.1807 30.6896 67.2078C30.4295 67.2393 30.2009 67.3926 30.0619 67.6135C30.0036 67.7082 29.9229 67.8389 29.9184 67.9471C29.9139 68.1049 29.8466 67.9922 29.9901 67.9291C30.3174 68.0643 30.6493 68.1996 30.9766 68.3348C30.9183 67.9156 30.8107 67.5143 30.6537 67.1176C30.4385 66.5856 29.757 66.4323 29.4251 66.9553C29.1292 67.4197 28.9005 67.9156 28.7301 68.434C29.1696 68.4926 29.609 68.5558 30.0529 68.6144C30.0081 68.0824 29.9587 67.5504 29.9139 67.0229C29.8825 66.6578 29.6269 66.3467 29.2413 66.3467C28.896 66.3602 28.5284 66.6713 28.5597 67.0365Z" fill="#727272"/>
<path d="M30.1784 76.5759C30.2233 77.3559 30.6134 78.0366 31.2905 78.4334C31.7389 78.6903 32.2949 78.3612 32.3038 77.8473C32.3083 77.4505 32.398 77.0854 32.5505 76.7202C32.1738 76.8194 31.8016 76.9186 31.425 77.0177C31.6088 77.2432 31.8061 77.4415 32.0258 77.6264C32.3845 77.9284 33.0392 77.8698 33.1513 77.3288C33.1782 77.2071 33.2096 77.1034 33.2499 76.9907C32.8733 77.0899 32.5011 77.1891 32.1245 77.2882C32.1648 77.2657 32.1873 77.2928 32.1828 77.3649C32.3263 77.703 32.8195 77.7751 33.102 77.6083C33.4472 77.4055 33.4876 77.0223 33.3441 76.6841C33.2858 76.5489 33.1917 76.4272 33.0751 76.3325C32.6581 76.0034 32.1469 76.1251 31.9496 76.63C31.9048 76.7427 31.8734 76.8509 31.851 76.9682C32.2276 76.869 32.5998 76.7698 32.9764 76.6706C32.7567 76.4858 32.5594 76.2829 32.3756 76.062C32.0169 75.6202 31.425 75.9493 31.2501 76.3595C31.0528 76.8329 30.9631 77.3333 30.9542 77.8473C31.2905 77.6534 31.6268 77.4596 31.9675 77.2612C31.7075 77.1124 31.5371 76.878 31.5191 76.5714C31.4743 75.7148 30.1291 75.7058 30.1784 76.5759Z" fill="#727272"/>
<path d="M32.9496 85.8496C33.1065 86.2553 33.2948 86.6295 33.5504 86.9856C33.9495 87.5357 34.7431 87.3328 34.8059 86.643C34.8104 86.6024 34.8821 86.102 34.8552 86.0795C34.6624 86.2012 34.4741 86.3229 34.2813 86.4446C34.3261 86.5078 34.3665 86.5664 34.4158 86.625C34.5862 86.8414 34.7969 87.0262 35.0705 87.1029C35.2812 87.157 35.5278 87.1299 35.7117 87.0127C35.8327 86.9315 35.9179 86.8369 35.9807 86.7061C36.0031 86.652 36.0255 86.5979 36.048 86.5438C36.1511 86.2192 35.9538 86.1651 35.4606 86.3815C35.7296 87.202 37.0299 86.8504 36.7564 86.0209C36.5681 85.4528 36.0211 85.0831 35.4247 85.3086C35.1826 85.4032 34.9718 85.5836 34.8552 85.818C34.8194 85.8901 34.6893 86.2012 34.7342 86.2914C34.9942 86.1426 35.2498 85.9893 35.5099 85.8405C35.474 85.7954 35.4381 85.7549 35.4068 85.7098C35.1915 85.2725 34.5683 85.0245 34.1199 85.1868C33.4876 85.4122 33.5145 86.0885 33.4652 86.6475C33.8822 86.5348 34.2992 86.4221 34.7207 86.3049C34.5369 86.0524 34.371 85.7864 34.2544 85.4934C33.9315 84.6909 32.6312 85.0381 32.9496 85.8496Z" fill="#727272"/>
<path d="M40.1373 50.9822C39.6531 51.3474 39.2495 51.7802 38.985 52.3347C38.6397 53.056 39.4423 53.6241 40.0432 53.1552C40.1867 53.0425 40.3301 52.9298 40.4736 52.8171C40.5364 52.7675 40.5992 52.7179 40.6664 52.6683C40.6978 52.6413 40.7292 52.6187 40.7606 52.5917C40.8727 52.5105 40.8144 52.524 40.5857 52.6277C40.4736 52.5962 40.3615 52.5646 40.2449 52.5376C40.2584 52.5466 40.2718 52.5556 40.2853 52.5646C40.2046 52.4835 40.1239 52.4023 40.0432 52.3212C40.0297 52.2626 40.0118 52.2085 39.9983 52.1499C40.0028 52.0867 40.0028 52.0777 39.9894 52.1318C39.958 52.1544 39.949 52.3076 39.949 52.3302C39.9176 52.5376 39.9356 52.7404 40.0432 52.9298C40.1418 53.1011 40.3167 53.2544 40.5095 53.304C40.5902 53.3265 40.6933 53.3355 40.7785 53.3355C40.8592 53.3355 40.931 53.322 41.0027 53.295C41.0969 53.2679 41.0655 53.2589 40.9041 53.2679C40.8054 53.2093 40.7068 53.1507 40.6081 53.0921C40.6216 53.1056 40.635 53.1191 40.6485 53.1327C40.5902 53.0335 40.5319 52.9343 40.4736 52.8351C40.4781 52.8486 40.4826 52.8667 40.4871 52.8802C40.5095 52.7044 40.5319 52.5331 40.5543 52.3572C40.5454 52.3708 40.5409 52.3843 40.5319 52.3978C40.1239 53.1642 41.2852 53.8495 41.6933 53.0786C41.8681 52.754 41.8278 52.3888 41.5543 52.1318C41.4108 51.9966 41.218 51.9154 41.0207 51.9109C40.9086 51.9064 40.7785 51.9785 40.6799 51.9695C40.792 52.0011 40.9041 52.0326 41.0207 52.0597C41.0027 52.0462 40.9848 52.0326 40.9713 52.0236C41.0521 52.1048 41.1328 52.1859 41.2135 52.2671C41.2045 52.249 41.1955 52.231 41.1866 52.213C41.218 52.3257 41.2493 52.4384 41.2762 52.5556C41.2673 52.4699 41.2807 52.515 41.3121 52.3888C41.348 52.231 41.3525 52.0597 41.3166 51.8974C41.2404 51.5728 40.9982 51.3384 40.6754 51.2798C40.3391 51.2166 40.1104 51.3925 39.8548 51.5908C39.5993 51.7892 39.3437 51.9921 39.0881 52.1904C39.4423 52.4654 39.7921 52.7359 40.1463 53.0109C40.3077 52.6773 40.514 52.3708 40.8144 52.1453C41.1059 51.9289 41.2538 51.5593 41.0565 51.2211C40.8906 50.9371 40.4333 50.7658 40.1373 50.9822Z" fill="#727272"/>
<path d="M37.5052 58.5922C37.3931 59.1332 37.2855 59.6742 37.1734 60.2197C37.0344 60.9095 37.7788 61.3062 38.2989 60.8779C38.4513 60.7517 38.5859 60.5939 38.6845 60.4226C38.7518 60.3054 38.8325 60.0664 38.8684 60.0078C38.7876 60.089 38.7069 60.1701 38.6262 60.2513C38.6486 60.2377 38.6666 60.2242 38.689 60.2062C38.5769 60.2377 38.4648 60.2693 38.3482 60.2964C38.3751 60.2918 38.402 60.2918 38.4289 60.2873C38.3168 60.2558 38.2047 60.2242 38.0881 60.1972C37.9805 60.1476 37.976 59.9718 38.0074 60.2017C38.0164 60.2603 38.0299 60.3099 38.0478 60.364C38.1106 60.5669 38.2227 60.7472 38.3931 60.8734C38.55 60.9906 38.7338 61.0538 38.9311 61.0492C39.0522 61.0447 39.1643 61.0132 39.2719 60.9591C39.3302 60.9365 39.3795 60.905 39.4244 60.8644C39.5409 60.7833 39.5096 60.7878 39.3347 60.8689C39.2226 60.8374 39.1105 60.8058 38.9939 60.7787C39.0118 60.7878 39.0163 60.7968 39.0298 60.8328C39.3167 61.6488 40.6171 61.2972 40.3256 60.4722C40.2001 60.116 40.0162 59.7869 39.671 59.6111C39.4916 59.5164 39.2674 59.4894 39.0701 59.5345C38.8728 59.5795 38.7563 59.7103 38.5859 59.7914C38.698 59.7599 38.8101 59.7283 38.9266 59.7013C38.9042 59.7013 38.8773 59.7013 38.8549 59.7013C38.967 59.7328 39.0791 59.7644 39.1957 59.7914C39.3167 60.0033 39.3526 60.0349 39.3033 59.8861C39.2943 59.8275 39.2854 59.7689 39.2764 59.7103C39.245 59.5931 39.1957 59.4713 39.1329 59.3722C38.967 59.1107 38.6935 58.9394 38.3841 58.9439C38.0792 58.9484 37.8012 59.1242 37.6577 59.3902C37.5366 59.6156 37.5456 59.7508 37.3393 59.9222C37.716 60.1431 38.0881 60.3595 38.4648 60.5804C38.5769 60.0394 38.6845 59.4984 38.7966 58.9574C38.976 58.1008 37.6801 57.7401 37.5052 58.5922Z" fill="#727272"/>
<path d="M36.9851 65.5037C36.8461 66.2295 36.7564 66.9599 36.734 67.6947C36.716 68.2087 37.3169 68.5333 37.7473 68.2808C37.9446 68.1636 38.0881 68.0058 38.1957 67.8029C38.2361 67.7263 38.3527 67.5505 38.3303 67.4828C38.3258 67.4738 38.2854 67.5324 38.3034 67.5234C38.1913 67.555 38.0792 67.5865 37.9626 67.6136C37.9536 67.6181 37.9402 67.6181 37.9312 67.6226C37.8505 67.5414 37.7698 67.4603 37.6891 67.3791C37.7653 67.4783 37.7563 67.4693 37.7653 67.573C37.8146 68.1275 38.4782 68.4972 38.9132 68.0509C38.9625 67.9968 39.0118 67.9472 39.0656 67.8976C38.9715 67.9427 38.8728 67.9337 38.7787 67.8796C38.7204 67.7804 38.6621 67.6812 38.6038 67.582C38.6127 67.6091 38.6217 67.6361 38.6352 67.6632C38.7607 68.0058 39.0925 68.2402 39.4647 68.1365C39.792 68.0464 40.0611 67.6496 39.9355 67.3025C39.5858 66.3467 38.5679 66.4685 37.9626 67.0951C38.3437 67.2529 38.7293 67.4152 39.1105 67.573C39.0567 66.9193 38.7338 66.2115 37.9626 66.2611C37.6487 66.2791 37.3707 66.4639 37.2048 66.7299C37.1465 66.8246 37.1061 66.9328 37.0613 67.0365C37.012 67.1492 36.9268 67.1898 37.0658 67.1086C37.4021 67.3025 37.7384 67.4964 38.0792 67.6947C38.0971 67.0771 38.1644 66.4685 38.2809 65.8598C38.4468 65.0123 37.151 64.6516 36.9851 65.5037Z" fill="#727272"/>
<path d="M37.6532 73.2262C37.8056 73.8303 37.9895 74.4209 38.2047 75.0025C38.3796 75.4759 38.9401 75.6742 39.3302 75.3001C39.5006 75.1332 39.6171 74.9394 39.6754 74.705C39.6979 74.6103 39.7158 74.4976 39.7203 74.4029C39.7337 74.1144 39.7023 74.3533 39.7292 74.3398C39.6171 74.3713 39.505 74.4029 39.3885 74.4299C39.4198 74.4299 39.4468 74.4254 39.4781 74.4254C39.366 74.3939 39.2539 74.3623 39.1374 74.3353C39.0477 74.2947 39.0746 74.2541 39.1463 74.3804C39.1822 74.4435 39.2136 74.4976 39.2584 74.5562C39.3974 74.7365 39.5678 74.8582 39.7965 74.8898C39.9983 74.9169 40.1911 74.8673 40.3615 74.75C40.4556 74.6824 40.5408 74.6058 40.6036 74.5066C40.6305 74.4525 40.6574 74.3984 40.6798 74.3443C40.7695 74.1685 40.6933 74.2136 40.4512 74.4841C40.3301 74.4841 40.2135 74.4841 40.0924 74.4841C40.0386 74.439 39.9893 74.3894 39.9355 74.3443C39.9041 74.2316 39.8727 74.1189 39.8458 74.0017C39.8458 74.0287 39.8458 74.0558 39.8458 74.0828C39.8324 74.9529 41.1776 74.9529 41.191 74.0828C41.2 73.6275 40.8861 73.2713 40.4512 73.1811C40.218 73.1316 39.9848 73.1811 39.792 73.3209C39.6979 73.3885 39.6216 73.4652 39.5589 73.5598C39.5454 73.5869 39.5319 73.6185 39.514 73.6455C39.3974 73.8709 39.4288 73.8664 39.6127 73.632C39.7248 73.6004 39.8369 73.5689 39.9534 73.5418C39.931 73.5463 39.9086 73.5463 39.8862 73.5508C39.9983 73.5824 40.1104 73.6139 40.227 73.641C40.4198 73.7357 40.3211 73.7041 40.2494 73.5779C40.1956 73.4787 40.1238 73.384 40.0431 73.3119C39.7875 73.082 39.4512 73.0234 39.1329 73.1361C38.8773 73.2262 38.6845 73.4246 38.5544 73.6545C38.4827 73.7853 38.4468 73.916 38.4199 74.0603C38.4065 74.1234 38.4199 74.3037 38.3796 74.3443C38.7562 74.4435 39.1284 74.5427 39.505 74.6418C39.2898 74.0603 39.106 73.4652 38.9535 72.8656C38.7338 72.027 37.4379 72.3832 37.6532 73.2262Z" fill="#727272"/>
<path d="M38.3302 79.6867C38.5724 80.4035 38.8818 81.0932 39.2629 81.7424C39.5364 82.2068 40.1418 82.1527 40.4242 81.7424C40.5005 81.6297 40.5543 81.5125 40.5901 81.3818C40.5946 81.3412 40.5991 81.3051 40.6081 81.2646C40.6798 81.0031 40.617 81.0121 40.4108 81.2961C40.2897 81.2961 40.1731 81.2961 40.0521 81.2961C39.8637 81.2375 39.9489 81.251 40.0476 81.3592C40.1193 81.4359 40.209 81.517 40.3032 81.5711C40.496 81.6793 40.7247 81.7199 40.9444 81.7019C41.4466 81.6658 41.7918 81.3322 41.9577 80.8768C42.2582 80.0608 40.9578 79.7047 40.6619 80.5162C40.7471 80.2908 40.9578 80.417 40.922 80.3088C40.8951 80.2322 40.7381 80.1285 40.6664 80.0879C40.4467 79.9617 40.1821 79.9346 39.9445 80.0158C39.7247 80.0879 39.5499 80.2547 39.4378 80.4576C39.3391 80.6379 39.366 80.9084 39.2584 81.0617C39.644 81.0617 40.0341 81.0617 40.4198 81.0617C40.0924 80.5072 39.8279 79.9391 39.6216 79.3305C39.3526 78.51 38.0522 78.8616 38.3302 79.6867Z" fill="#727272"/>
<path d="M40.1014 87.4005C40.1059 87.7747 40.1597 88.1489 40.2763 88.5006C40.3615 88.7575 40.5633 88.9469 40.8368 88.983C41.0834 89.0145 41.3928 88.9018 41.5049 88.6584C41.5811 88.4961 41.6574 88.3338 41.7336 88.176C41.7695 88.0993 41.8053 88.0272 41.8367 87.9506C41.8546 87.9145 41.8726 87.8739 41.8905 87.8378C41.9264 87.7702 41.9264 87.7702 41.8905 87.8378C41.7919 87.8965 41.6932 87.9551 41.5946 88.0137C41.608 88.0092 41.626 88.0002 41.6394 87.9956C41.5184 87.9956 41.4018 87.9956 41.2807 87.9956C41.2583 87.9866 41.2314 87.9731 41.209 87.9641C41.1282 87.8829 41.0475 87.8018 40.9668 87.7206C40.8996 87.6079 40.9623 87.7026 40.9892 87.7792C41.0117 87.8514 41.0386 87.919 41.061 87.9911C41.1103 88.1309 41.1596 88.2752 41.2045 88.4149C41.3211 88.7621 41.6663 88.9875 42.034 88.8883C42.3658 88.7981 42.6214 88.4014 42.5048 88.0542C42.312 87.4952 42.1506 86.5755 41.3704 86.6792C40.765 86.7604 40.5633 87.4997 40.3391 87.9776C40.7471 88.0317 41.1596 88.0858 41.5677 88.1399C41.4825 87.8739 41.4421 87.6575 41.4376 87.396C41.4332 87.0444 41.1327 86.7018 40.7651 86.7198C40.4108 86.7378 40.0969 87.0218 40.1014 87.4005Z" fill="#727272"/>
<path d="M46.2803 88.2209C46.2444 88.5274 46.2085 88.8385 46.1727 89.1451C46.1368 89.4336 46.4058 89.7267 46.6659 89.7988C46.9708 89.8844 47.2533 89.7357 47.4237 89.4877C47.5448 89.3119 47.6658 89.1406 47.7869 88.9648C47.8407 88.8836 47.899 88.807 47.9528 88.7258C47.9752 88.6943 47.9976 88.6627 48.02 88.6311C48.1187 88.4959 48.1052 88.5049 47.9842 88.6582C47.8721 88.6897 47.76 88.7213 47.6434 88.7484C47.6658 88.7484 47.6838 88.7484 47.7062 88.7484C47.5941 88.7168 47.482 88.6852 47.3654 88.6582C47.2309 88.4238 47.186 88.3787 47.2309 88.5229C47.2443 88.577 47.2533 88.6356 47.2667 88.6897C47.2892 88.8025 47.3116 88.9107 47.3385 89.0234C47.3878 89.2578 47.4102 89.5328 47.5313 89.7447C47.6479 89.9431 47.8407 90.1144 48.0649 90.1775C48.4102 90.2722 48.6926 90.0963 48.8944 89.8258C49.1141 89.5328 48.9393 89.0684 48.6523 88.9016C48.307 88.6988 47.9528 88.852 47.7331 89.1451C47.7241 89.1586 47.7151 89.1721 47.7062 89.1812C47.899 89.0684 48.0918 88.9557 48.2891 88.8475C48.2756 88.8475 48.2622 88.852 48.2487 88.852C48.3608 88.8836 48.4729 88.9152 48.5895 88.9422C48.7061 89.0008 48.7778 89.3299 48.7106 88.9963C48.6926 88.9016 48.6702 88.8115 48.6523 88.7168C48.6164 88.55 48.585 88.3832 48.5492 88.2164C48.4684 87.8647 48.2577 87.5221 47.89 87.4184C47.482 87.3057 47.1591 87.5401 46.9305 87.8467C46.7018 88.1578 46.4865 88.4779 46.2668 88.7934C46.6838 88.9061 47.1008 89.0189 47.5223 89.1361C47.5582 88.8295 47.5941 88.5184 47.6299 88.2119C47.6703 87.8467 47.2892 87.5356 46.9574 87.5356C46.5583 87.5446 46.3251 87.8602 46.2803 88.2209Z" fill="#727272"/>
<path d="M46.926 75.8727C46.76 76.594 46.6793 77.3334 46.6928 78.0727C46.7018 78.7084 47.6344 79.0375 47.9483 78.4154C48.0828 78.1449 48.2173 77.8789 48.3518 77.6084C48.4505 77.41 48.5222 77.162 48.7016 77.0223C48.6029 77.0809 48.5043 77.1395 48.4057 77.1981C48.4057 77.1936 48.4057 77.1891 48.4101 77.1846C48.1949 77.0178 47.9797 76.8555 47.76 76.6887C47.8452 77.0088 47.9304 77.3288 48.0156 77.6489C48.1232 78.0502 48.6388 78.2936 49.002 78.0547C49.0648 78.0141 49.1276 77.969 49.1903 77.9285C49.9078 77.4506 49.2352 76.2784 48.5133 76.7608C48.4505 76.8014 48.3877 76.8465 48.3249 76.887C48.6523 77.0223 48.9841 77.1575 49.3114 77.2928C49.2262 76.9727 49.141 76.6526 49.0558 76.3325C48.9796 76.0485 48.7016 75.8321 48.4057 75.8366C47.4595 75.8546 47.1367 77.0358 46.787 77.7391C47.204 77.8518 47.621 77.9645 48.0425 78.0817C48.0335 77.4551 48.0873 76.851 48.2263 76.2378C48.4146 75.3858 47.1188 75.0251 46.926 75.8727Z" fill="#727272"/>
<path d="M45.6436 65.756C45.675 66.288 45.7019 66.8155 45.7333 67.3475C45.7691 68.0147 46.6211 68.2717 46.9888 67.6901C47.2488 67.2753 47.5089 66.8651 47.769 66.4503C47.3834 66.4503 46.9933 66.4503 46.6076 66.4503C46.7018 66.6126 46.7601 66.7614 46.7691 66.9507C46.8005 67.5458 47.4775 67.8299 47.917 67.4286C48.2577 67.1221 48.4774 66.7524 48.6434 66.3241C48.316 66.4593 47.9842 66.5946 47.6569 66.7298C47.6569 66.7389 47.6569 66.7479 47.6524 66.7524C47.5941 66.6532 47.5358 66.554 47.4775 66.4548C47.491 66.4819 47.4999 66.5134 47.5134 66.5405C47.6524 66.8786 47.9573 67.1176 48.3429 67.0139C48.6568 66.9282 48.9527 66.5225 48.8137 66.1798C48.6972 65.9048 48.5761 65.738 48.334 65.5577C47.9528 65.2737 47.4865 65.5983 47.3475 65.9634C47.2668 66.1708 47.1278 66.3241 46.9664 66.4729C47.3475 66.6307 47.7331 66.793 48.1142 66.9507C48.0918 66.527 47.9842 66.1347 47.769 65.7696C47.5044 65.3232 46.8767 65.3413 46.6076 65.7696C46.3476 66.1843 46.0875 66.5946 45.8274 67.0094C46.2444 67.1221 46.6615 67.2348 47.0829 67.352C47.0516 66.82 47.0247 66.2925 46.9933 65.7605C46.9395 64.8904 45.5943 64.8859 45.6436 65.756Z" fill="#727272"/>
<path d="M46.0068 56.8159C45.9664 57.1586 45.9485 57.5012 45.9575 57.8438C45.9709 58.3127 46.5359 58.7455 46.9708 58.4299C47.195 58.2676 47.334 58.0828 47.4103 57.8168C47.4282 57.7537 47.4461 57.6815 47.4551 57.6184C47.4641 57.5598 47.4999 57.5553 47.4506 57.6004C47.2175 57.8168 46.9708 58.1278 46.5987 57.677C46.639 57.7266 46.6256 57.7221 46.5987 57.6635C46.6301 57.7311 46.6525 57.8078 46.6839 57.8754C46.7377 57.9926 46.8184 58.0963 46.9081 58.1865C47.1861 58.4615 47.5986 58.5156 47.9349 58.3217C48.2532 58.1414 48.3564 57.7086 48.177 57.3975C47.9887 57.0774 47.5762 56.9737 47.2578 57.1541C47.2444 57.1631 47.2264 57.1721 47.213 57.1811C47.3251 57.1495 47.4372 57.118 47.5537 57.0909C47.5896 57.0864 47.9125 57.2668 47.8856 57.2758C47.9035 57.3118 47.9035 57.3118 47.89 57.2803C47.8766 57.2442 47.8631 57.2082 47.8452 57.1721C47.7914 57.0413 47.7286 56.9196 47.63 56.8114C47.4103 56.5815 47.0695 56.4688 46.7601 56.568C46.4686 56.6581 46.2758 56.8926 46.1817 57.1766C46.1592 57.2397 46.1503 57.3028 46.1323 57.3705C46.1234 57.402 46.1144 57.4291 46.1099 57.4606C46.092 57.5192 46.092 57.5192 46.1144 57.4606C46.1413 57.375 46.1996 57.3073 46.2893 57.2623C46.6256 57.4561 46.9619 57.65 47.3026 57.8483C47.2937 57.5057 47.3116 57.1631 47.352 56.8204C47.3968 56.4688 47.0112 56.1307 46.6794 56.1442C46.2803 56.1622 46.0561 56.4417 46.0068 56.8159Z" fill="#727272"/>
<path d="M45.5943 49.8821C45.4687 50.378 45.5315 50.8874 45.796 51.3247C46.1099 51.8567 46.8318 51.6944 47.0246 51.1624C47.0964 50.9641 46.9888 51.2841 47.056 51.0813C47.0829 51.0046 47.1054 51.0407 47.0381 51.0723C46.8318 51.1805 46.5538 51.1083 46.4911 50.8378C46.5763 51.194 46.9753 51.4059 47.3206 51.3112C47.6793 51.212 47.8766 50.8378 47.7914 50.4772C47.6703 49.9632 47.1143 49.6882 46.6166 49.8054C46.1279 49.9271 45.8902 50.3554 45.7288 50.7972C46.1368 50.7431 46.5493 50.689 46.9574 50.6349C46.8901 50.5177 46.8812 50.5267 46.8677 50.387C46.8767 50.4591 46.8722 50.369 46.8722 50.3464C46.8812 50.148 46.8453 50.4276 46.8901 50.2337C46.9753 49.8911 46.778 49.4853 46.4193 49.3997C46.0741 49.3275 45.6884 49.5124 45.5943 49.8821Z" fill="#727272"/>
<path d="M26.3671 48.2863C26.1698 48.5478 25.9904 48.8228 25.8335 49.1113C25.569 49.5847 26.0173 50.3241 26.5913 50.1032C26.7975 50.0265 26.9993 49.9454 27.2056 49.8687C26.9321 49.7109 26.6541 49.5531 26.3761 49.3953C26.4119 49.499 26.4299 49.5667 26.4254 49.6704C26.4209 50.013 26.7393 50.3782 27.098 50.3466C27.4343 50.3195 27.7212 50.2384 28.0217 50.0941C28.349 49.9363 28.4342 49.463 28.2638 49.1699C28.0665 48.8318 27.6719 48.7687 27.3446 48.9265C27.2773 48.958 27.1518 48.9896 27.098 48.9941C27.3222 49.2195 27.5464 49.4449 27.7706 49.6704C27.775 49.454 27.7437 49.2376 27.6719 49.0347C27.5598 48.7146 27.2056 48.4261 26.8424 48.5613C26.6361 48.638 26.4344 48.7191 26.2281 48.7957C26.4792 49.1248 26.7348 49.4585 26.9859 49.7876C27.1473 49.499 27.3222 49.224 27.5195 48.9625C27.7392 48.6695 27.5643 48.2052 27.2773 48.0383C26.941 47.8445 26.5868 47.9933 26.3671 48.2863Z" fill="#727272"/>
<path d="M22.5603 55.8783C22.3047 56.4419 22.085 57.0189 21.9056 57.614C21.7935 57.9837 22.0402 58.3263 22.3765 58.4481C22.6634 58.5518 22.9728 58.4886 23.2239 58.3263C23.3315 58.2542 23.4033 58.1821 23.484 58.0874C23.7934 57.7177 23.3674 58.1956 23.1163 57.8845C23.058 57.7853 22.9997 57.6862 22.9414 57.587C22.9056 57.4607 22.9325 57.7222 22.9325 57.7177C22.9459 57.8214 22.9728 57.9296 23.0266 58.0243C23.1298 58.2001 23.3181 58.3444 23.5109 58.3985C23.8741 58.4977 24.3404 58.3579 24.4974 57.9882C24.6408 57.6546 24.596 57.2624 24.2552 57.064C23.9727 56.8972 23.4795 56.9693 23.336 57.3075C23.3495 57.2894 23.3629 57.2714 23.3809 57.2579C23.4795 57.1993 23.5781 57.1407 23.6768 57.082C23.8113 57.1226 23.9458 57.1632 24.0803 57.2038C24.1386 57.303 24.1969 57.4021 24.2552 57.5013C24.2911 57.6275 24.2642 57.3165 24.2552 57.2849C24.2193 57.1497 24.1566 57.0279 24.0669 56.9288C23.901 56.7529 23.6858 56.6492 23.4436 56.6357C23.2239 56.6267 23.0221 56.6898 22.8428 56.8161C22.7576 56.8747 22.6858 56.9423 22.6186 57.0234C22.3406 57.348 22.5334 57.073 22.7396 57.1452C22.8966 57.4247 23.0535 57.6997 23.2105 57.9792C23.3539 57.4968 23.5243 57.0279 23.7306 56.5681C23.8786 56.2345 23.8248 55.8423 23.4885 55.6439C23.1925 55.4681 22.7083 55.5447 22.5603 55.8783Z" fill="#727272"/>
<path d="M21.0716 63.8536C20.9281 64.629 20.9281 65.3819 21.0806 66.1574C21.1568 66.5406 21.5693 66.6848 21.9101 66.6307C22.1074 66.5992 22.2912 66.4865 22.4302 66.3377C22.4885 66.2746 22.5423 66.1979 22.5917 66.1258C22.6186 66.0852 22.641 66.0446 22.6634 65.9996C22.7038 65.9364 22.6903 65.941 22.6141 66.0041C22.493 66.0041 22.3764 66.0041 22.2554 66.0041C22.2868 66.0131 22.3181 66.0221 22.3495 66.0311C22.2509 65.9725 22.1522 65.9139 22.0536 65.8553C22.0043 65.7516 21.9998 65.7561 22.0446 65.8688C22.067 65.9229 22.0895 65.977 22.1119 66.0311C22.1836 66.1664 22.2823 66.2746 22.4078 66.3557C22.7082 66.5586 22.9818 66.5451 23.3046 66.3963C23.6364 66.2475 23.7171 65.7606 23.5467 65.4721C23.3494 65.1295 22.9593 65.0799 22.6275 65.2286C22.6051 65.2377 22.5782 65.2512 22.5558 65.2602C22.7307 65.2377 22.9011 65.2151 23.0759 65.1926C23.049 65.1836 23.0221 65.1791 22.9952 65.17C23.0939 65.2286 23.1925 65.2872 23.2912 65.3459C23.3181 65.436 23.3181 65.445 23.2956 65.3774C23.2732 65.3053 23.2463 65.2377 23.2149 65.1745C23.1746 65.0979 23.1297 65.0213 23.067 64.9581C22.8786 64.7553 22.6186 64.6606 22.345 64.6876C22.1074 64.7102 21.8967 64.8274 21.7307 64.9987C21.65 65.0799 21.5828 65.1745 21.5245 65.2737C21.511 65.3008 21.4931 65.3278 21.4796 65.3549C21.3945 65.4811 21.4169 65.4676 21.5514 65.3188C21.8249 65.4766 22.1029 65.6344 22.3809 65.7922C22.2778 65.2692 22.2733 64.7327 22.3719 64.2098C22.4392 63.8491 22.2733 63.4794 21.9011 63.3757C21.5693 63.2901 21.1389 63.4929 21.0716 63.8536Z" fill="#727272"/>
<path d="M22.0311 73.614C22.2195 73.9927 22.4033 74.3714 22.5916 74.7501C22.7575 75.0837 23.2104 75.1603 23.5108 74.9935C23.753 74.8583 23.9189 74.6419 23.9951 74.3714C24.031 74.2497 24.0534 74.0964 24.04 73.9701C24.0265 73.8259 24.0893 73.8664 24.013 73.9341C23.9144 73.9927 23.8158 74.0513 23.7171 74.1099C23.7081 74.1144 23.6992 74.1144 23.6902 74.1189C23.5781 74.0874 23.466 74.0558 23.3494 74.0287C23.5826 74.164 23.6947 74.3804 24.0355 74.3804C24.439 74.3804 24.5287 74.1415 24.7708 73.9025C24.6722 73.9611 24.5735 74.0197 24.4749 74.0783C24.3449 73.9972 24.2148 73.916 24.0848 73.8304C24.1386 74.191 24.5915 74.3894 24.9143 74.3038C25.2999 74.1956 25.4389 73.8349 25.3851 73.4697C25.3224 73.064 24.9412 72.7619 24.5466 72.7213C24.0848 72.6763 23.7844 72.9287 23.5647 73.3074C23.6454 73.2263 23.7261 73.1451 23.8068 73.064C23.7844 73.082 23.7575 73.1 23.735 73.1181C23.8471 73.0865 23.9592 73.055 24.0758 73.0279C24.0534 73.0279 24.0265 73.0279 24.0041 73.0279C24.1162 73.0595 24.2283 73.091 24.3449 73.1181C24.2641 73.073 24.0534 72.8431 23.874 72.7935C23.6185 72.7213 23.3494 72.7754 23.1387 72.9332C22.9504 73.073 22.8203 73.2804 22.7531 73.5013C22.7082 73.641 22.7575 73.9251 22.6858 74.0242C22.7665 73.9431 22.8472 73.8619 22.9279 73.7808C22.901 73.7943 22.8741 73.8123 22.8427 73.8259C23.1476 73.907 23.457 73.9882 23.7619 74.0693C23.5736 73.6906 23.3898 73.3119 23.2015 72.9332C22.8069 72.1488 21.6455 72.834 22.0311 73.614Z" fill="#727272"/>
<path d="M26.1833 83.6585C26.1609 84.2401 26.7617 84.5692 27.2684 84.4114C27.5105 84.3347 27.6854 84.1634 27.802 83.947C27.8199 83.911 27.8379 83.8704 27.8558 83.8343C27.9544 83.6765 27.8558 83.7216 27.5509 83.9786C27.4119 83.9606 27.4747 83.9606 27.5733 84.0147C27.8917 84.1905 28.3087 84.0913 28.4925 83.7712C28.6719 83.4601 28.5687 83.0228 28.2504 82.847C27.9186 82.6622 27.5419 82.554 27.1742 82.7072C26.9859 82.7884 26.829 82.9236 26.7214 83.104C26.69 83.1536 26.6586 83.2122 26.6406 83.2708C26.6317 83.2888 26.6227 83.3069 26.6137 83.3249C26.8469 83.0634 27.089 83.0409 27.3446 83.2573C27.4029 83.3564 27.4612 83.4556 27.5195 83.5548C27.524 83.5909 27.5285 83.6269 27.533 83.663C27.5464 83.3069 27.2146 82.9687 26.8604 82.9868C26.4792 83.0003 26.1967 83.2798 26.1833 83.6585Z" fill="#727272"/>
<path d="M51.0377 50.1574C51.1184 50.5631 51.2574 50.9418 51.4323 51.316C51.5982 51.6632 52.0511 51.7082 52.3515 51.5595C52.5219 51.4738 52.6609 51.3205 52.7506 51.1537C52.7775 51.1041 52.7954 51.05 52.8223 50.9959C52.9658 50.6849 52.8179 51.1537 52.4726 51.1177C52.3605 51.0861 52.2484 51.0545 52.1318 51.0275C52.0556 50.9914 52.2439 51.1131 52.2439 51.1131C52.3157 51.1672 52.365 51.1988 52.4502 51.2349C52.625 51.3115 52.8044 51.325 52.9927 51.298C53.3963 51.2304 53.6339 50.9689 53.7864 50.6037C53.9254 50.2656 53.6339 49.8598 53.3156 49.7697C52.93 49.6615 52.6295 49.9049 52.486 50.243C52.643 49.95 52.8403 49.8869 53.0734 50.0537C53.0555 50.0357 53.0376 50.0176 53.0152 50.0041C52.93 49.9184 52.7685 49.8283 52.652 49.7967C52.4367 49.7381 52.2036 49.7742 52.0152 49.8869C51.8583 49.9816 51.7462 50.1303 51.67 50.2926C51.652 50.3332 51.6296 50.3783 51.6117 50.4234C51.5624 50.5676 51.5893 50.4324 51.67 50.3963C51.9749 50.4775 52.2843 50.5586 52.5892 50.6398C52.4636 50.3738 52.3874 50.0943 52.3291 49.8057C52.2618 49.4451 51.8314 49.2422 51.4996 49.3324C51.1364 49.427 50.9705 49.7967 51.0377 50.1574Z" fill="#727272"/>
<path d="M52.5982 57.898C52.6834 58.3263 52.773 58.7546 52.8582 59.1829C53.0017 59.8907 53.9478 59.7599 54.1541 59.1829C54.2214 58.989 54.3379 58.8628 54.4859 58.7275C54.1317 58.6824 53.7819 58.6373 53.4277 58.5923C53.5443 58.8628 53.6653 59.1378 53.7819 59.4083C53.9164 59.7193 54.4366 59.8546 54.7011 59.6517C54.8626 59.53 54.9926 59.4218 55.0957 59.2415C55.1316 59.1783 55.1719 59.1017 55.1944 59.0296C55.2033 58.998 55.2168 58.9665 55.2347 58.9394C55.3423 58.741 55.1361 58.6779 54.6115 58.7501C54.5621 59.1107 54.9567 59.4263 55.284 59.4263C55.6876 59.4263 55.9073 59.1152 55.9566 58.7501C56.0329 58.1865 55.5082 57.6771 54.9657 57.6771C54.6922 57.6771 54.4455 57.7988 54.2617 57.9927C54.1765 58.0828 54.1182 58.182 54.0599 58.2902C54.0241 58.3623 53.8851 58.5878 54.0241 58.4841C54.329 58.5652 54.6384 58.6464 54.9433 58.7275C54.8267 58.457 54.7056 58.182 54.589 57.9115C54.4052 57.4877 53.8178 57.5148 53.5308 57.7763C53.208 58.0693 53.0017 58.421 52.8538 58.8267C53.2842 58.8267 53.7192 58.8267 54.1496 58.8267C54.0644 58.3984 53.9747 57.9701 53.8895 57.5418C53.7236 56.6853 52.4233 57.0459 52.5982 57.898Z" fill="#727272"/>
<path d="M53.7774 68.2401C53.7371 68.5782 53.7774 68.9253 53.8671 69.2499C53.9792 69.6422 54.4904 69.9082 54.8536 69.6557C55.0912 69.4889 55.2347 69.3085 55.3379 69.0381C55.3648 68.9704 55.3872 68.8983 55.4096 68.8262C55.45 68.6819 55.4096 68.8758 55.293 68.8938C55.172 68.8938 55.0554 68.8938 54.9343 68.8938C54.8222 68.8487 54.7505 68.7811 54.7325 68.6819C54.7191 68.6368 54.7236 68.6503 54.7505 68.7225C54.7639 68.763 54.7774 68.8081 54.7908 68.8487C54.867 69.0561 54.9747 69.2229 55.145 69.3627C55.5127 69.6602 55.9297 69.6106 56.2885 69.3311C56.5754 69.1057 56.5216 68.6098 56.2885 68.3753C56.006 68.0913 55.6248 68.1499 55.3379 68.3753C55.3244 68.3889 55.3065 68.3979 55.293 68.4114C55.3917 68.3528 55.4903 68.2942 55.589 68.2356C55.571 68.2401 55.5531 68.2446 55.5352 68.2491C55.6562 68.2491 55.7728 68.2491 55.8939 68.2491C55.9746 68.2626 56.0912 68.5106 56.0418 68.3618C56.006 68.2446 55.9611 68.1229 55.8983 68.0192C55.71 67.7126 55.3782 67.5368 55.024 67.5729C54.7101 67.6044 54.4545 67.8028 54.2841 68.0643C54.2124 68.177 54.1631 68.3032 54.1227 68.4294C54.1093 68.47 54.0824 68.5286 54.0779 68.5692C54.0734 68.6278 54.0644 68.5557 54.1765 68.479C54.5038 68.6143 54.8357 68.7495 55.163 68.8848C55.1002 68.6639 55.0912 68.4655 55.1181 68.2356C55.1585 67.8704 54.7774 67.5593 54.4456 67.5593C54.0554 67.5638 53.8223 67.8749 53.7774 68.2401Z" fill="#727272"/>
<path d="M53.4053 76.2018C53.3694 76.6436 53.4053 77.0764 53.4725 77.5137C53.5532 78.0231 54.2752 78.1539 54.598 77.8112C54.7146 77.6895 54.8356 77.5678 54.9612 77.4551C55.0733 77.3559 55.1899 77.2567 55.2796 77.1936C54.9522 77.0583 54.6204 76.9231 54.2931 76.7878C54.3334 76.9051 54.3334 76.7698 54.32 76.896C54.329 76.8014 54.2662 76.9817 54.311 76.9051C54.1362 77.2252 54.2348 77.6444 54.5532 77.8293C54.8626 78.0096 55.2975 77.9104 55.4724 77.5858C55.6652 77.2297 55.728 76.8149 55.5934 76.4272C55.4634 76.0575 54.9791 75.7464 54.607 76.0214C54.2662 76.2739 53.9478 76.5444 53.6564 76.851C54.033 76.9501 54.4052 77.0493 54.7818 77.1485C54.737 76.8555 54.737 76.5128 54.7594 76.1928C54.7863 75.8411 54.4321 75.503 54.0868 75.5165C53.6922 75.5436 53.4367 75.8231 53.4053 76.2018Z" fill="#727272"/>
<path d="M52.9748 85.0337C52.7327 85.4439 52.5489 85.8948 52.4457 86.3636C52.365 86.7198 52.5534 87.094 52.9165 87.1977C53.2932 87.3014 53.616 87.0714 53.7461 86.7243C53.7864 86.6116 53.9209 86.3681 53.9927 86.2735C53.6743 86.2735 53.3605 86.2735 53.0421 86.2735C52.9614 86.1743 52.939 86.0661 52.9704 85.9398C52.9121 86.3005 53.0645 86.6657 53.4412 86.7739C53.764 86.864 54.2079 86.6657 54.2707 86.3005C54.3335 85.9263 54.2662 85.5972 53.9972 85.3177C53.764 85.0742 53.2708 85.0337 53.0466 85.3177C52.7865 85.6423 52.5982 85.9714 52.4502 86.3636C52.8807 86.4853 53.3156 86.6026 53.7461 86.7243C53.8313 86.3456 53.9434 86.048 54.1407 85.7189C54.3245 85.4034 54.2124 84.9751 53.8985 84.7947C53.5802 84.6054 53.1632 84.7181 52.9748 85.0337Z" fill="#727272"/>
<path d="M57.8982 87.7341C57.6202 88.0993 57.4901 88.5501 57.4677 89.0054C57.4543 89.2714 57.6471 89.5284 57.8802 89.6231C58.1448 89.7313 58.4004 89.6682 58.6156 89.4833C58.9474 89.1993 59.2792 88.9108 59.611 88.6267C59.2568 88.5817 58.907 88.5366 58.5528 88.4915C58.5259 88.4509 58.5394 88.3923 58.5439 88.3472C58.5483 88.3157 58.6201 88.2075 58.5483 88.3202C58.3555 88.6313 58.4811 89.0641 58.7905 89.2444C59.1133 89.4337 59.5169 89.312 59.7097 89.0009C59.9384 88.6358 59.9339 88.1714 59.7142 87.8017C59.4765 87.405 58.9878 87.3825 58.656 87.6665C58.3241 87.9505 57.9923 88.239 57.6605 88.5231C58.0416 88.6808 58.4273 88.8431 58.8084 89.0009C58.8174 88.7981 58.7725 89.0911 58.8174 88.8972C58.8353 88.8296 58.8532 88.7575 58.8757 88.6899C58.8398 88.7845 58.9295 88.5952 58.9295 88.5907C58.9653 88.5276 59.0057 88.469 59.0505 88.4149C59.2702 88.1218 59.0954 87.6575 58.8084 87.4907C58.4721 87.2878 58.1224 87.4411 57.8982 87.7341Z" fill="#727272"/>
<path d="M60.3823 78.8797C60.2881 79.3937 60.2343 79.9121 60.2298 80.4396C60.2208 81.1023 61.158 81.3728 61.4853 80.7822C61.6871 80.4125 61.9247 80.0924 62.2207 79.7949C61.9472 79.831 61.6781 79.867 61.4046 79.8986C61.3911 79.8896 61.3732 79.876 61.3598 79.867C61.3015 79.7678 61.2432 79.6687 61.1849 79.5695C61.1714 79.5289 61.2163 79.4027 61.1714 79.5469C61.14 79.6371 61.1221 79.7814 61.1176 79.867C61.1087 80.0834 61.1714 80.2953 61.297 80.4711C61.4405 80.665 61.6781 80.7957 61.9247 80.7957C62.0593 80.7957 62.2162 80.7552 62.3328 80.692C62.3552 80.6785 62.3731 80.6695 62.3955 80.656C62.5032 80.5884 62.4718 80.5838 62.3014 80.6425C62.1893 80.6109 62.0772 80.5793 61.9606 80.5523C61.7812 80.4621 61.7678 80.3584 61.7857 80.2277C61.7364 80.5884 61.8754 80.9535 62.2565 81.0617C62.5704 81.1474 63.0323 80.9535 63.0861 80.5884C63.1399 80.2006 63.1219 79.8084 62.826 79.5154C62.678 79.3711 62.4538 79.2855 62.2476 79.29C62.1131 79.2945 61.9561 79.3396 61.8395 79.4027C61.8081 79.4207 61.6602 79.4838 61.7454 79.4658C61.8664 79.4658 61.983 79.4658 62.1041 79.4658C62.0862 79.4613 62.0637 79.4523 62.0458 79.4478C62.1444 79.5064 62.2431 79.565 62.3417 79.6236C62.3866 79.9978 62.4269 80.0924 62.4673 79.9076C62.4852 79.8625 62.4942 79.8174 62.5032 79.7678C62.5256 79.6642 62.5345 79.556 62.5256 79.4478C62.5076 79.1502 62.3552 78.8662 62.0817 78.7354C61.8126 78.6002 61.4898 78.6182 61.2656 78.8391C60.8934 79.2133 60.5751 79.6371 60.3195 80.097C60.7365 80.2097 61.1535 80.3224 61.575 80.4396C61.5795 80.0383 61.6109 79.6371 61.6826 79.2404C61.7454 78.8797 61.584 78.51 61.2118 78.4063C60.88 78.3162 60.445 78.519 60.3823 78.8797Z" fill="#727272"/>
<path d="M61.288 69.5702C61.0952 70.0345 61.0907 70.562 61.2387 71.0399C61.445 71.6981 62.3148 71.6665 62.5346 71.0399C62.6467 70.7153 62.8484 70.4583 63.104 70.2329C62.7229 70.0751 62.3373 69.9128 61.9561 69.755C61.9696 69.9849 61.9875 70.2149 62.001 70.4403C62.0279 70.837 62.2879 71.0714 62.6736 71.1165C62.8888 71.1436 63.0861 71.0714 63.2654 70.9542C63.3417 70.9046 63.4089 70.846 63.4672 70.7784C63.4896 70.7468 63.5165 70.7198 63.539 70.6927C63.6197 70.6071 63.5524 70.6251 63.3327 70.7468C63.2206 70.7153 63.1085 70.6837 62.9919 70.6567C62.956 70.6161 62.9157 70.5755 62.8798 70.5349C62.8484 70.4222 62.817 70.3095 62.7901 70.1923C62.7901 70.2103 62.7901 70.2284 62.7946 70.2464C62.826 70.1337 62.8574 70.021 62.8843 69.9038C62.8753 69.9173 62.8664 69.9353 62.8574 69.9489C62.4 70.6927 63.5659 71.3735 64.0187 70.6296C64.2878 70.1923 64.0636 69.6243 63.5928 69.453C63.3461 69.3628 63.095 69.3808 62.8664 69.5071C62.7722 69.5566 62.6915 69.6288 62.6153 69.7054C62.5973 69.7234 62.5839 69.746 62.5659 69.764C62.4763 69.8542 62.5121 69.8542 62.6736 69.764C62.8978 69.9894 63.122 70.2149 63.3461 70.4403C63.3327 70.2103 63.3148 69.9804 63.3013 69.755C63.261 69.1554 62.6018 68.8804 62.1534 69.2771C61.723 69.6603 61.427 70.1382 61.2387 70.6792C61.6692 70.6792 62.1041 70.6792 62.5346 70.6792C62.4494 70.4042 62.4763 70.1923 62.5839 69.9308C62.7229 69.5927 62.4314 69.187 62.1131 69.0968C61.7274 68.9886 61.427 69.232 61.288 69.5702Z" fill="#727272"/>
<path d="M60.7276 57.7175C60.7634 58.0962 60.8038 58.4794 60.8397 58.8581C60.871 59.1917 61.0683 59.4803 61.4226 59.5208C61.7454 59.5614 62.0772 59.3675 62.1624 59.0384C62.2342 58.7499 62.3328 58.4884 62.4763 58.2315C62.0907 58.2315 61.7006 58.2315 61.315 58.2315C61.3822 58.3577 61.4495 58.4839 61.5123 58.6056C61.7589 59.07 62.4135 59.0159 62.6736 58.6056C62.696 58.5696 62.7274 58.538 62.7274 58.5245C62.7991 58.4614 62.7498 58.4659 62.5884 58.538C62.5167 58.5786 62.4449 58.5876 62.3732 58.5741C62.2925 58.4929 62.2118 58.4118 62.131 58.3306C62.1266 58.3126 62.1221 58.2946 62.1176 58.2765C62.3777 59.1016 63.678 58.7499 63.4135 57.9159C63.2789 57.4921 62.9112 57.2261 62.4629 57.2396C62.0279 57.2532 61.723 57.5777 61.5078 57.9204C61.8934 57.9204 62.2835 57.9204 62.6691 57.9204C62.6019 57.7941 62.5346 57.6679 62.4718 57.5462C62.2387 57.1044 61.5481 57.1089 61.3105 57.5462C61.1177 57.9023 60.9652 58.281 60.8621 58.6778C61.3015 58.7364 61.7409 58.7995 62.1848 58.8581C62.149 58.4794 62.1086 58.0962 62.0727 57.7175C62.0369 57.3523 61.7903 57.0413 61.4002 57.0413C61.0639 57.0413 60.6917 57.3523 60.7276 57.7175Z" fill="#727272"/>
<path d="M57.3959 50.1572C57.5663 50.59 57.7771 50.9507 58.073 51.3113C58.4138 51.7261 59.055 51.4556 59.1985 51.0138C59.3016 50.6892 59.3465 50.3375 59.3151 49.9994C58.8981 50.1121 58.4811 50.2248 58.0596 50.342C58.1896 50.5945 58.3735 50.8244 58.5932 51.0048C58.8757 51.2347 59.2702 51.2798 59.5438 51.0048C59.7814 50.7658 59.8262 50.2789 59.5438 50.049C59.463 49.9859 59.3868 49.9138 59.324 49.8371C59.2568 49.7515 59.3644 49.9047 59.3061 49.8101C59.2747 49.7605 59.2478 49.7109 59.2209 49.6613C59.0819 49.3908 58.7366 49.2691 58.4586 49.3457C58.1941 49.4178 57.9385 49.7064 57.9654 49.9994C57.9923 50.2834 57.9833 50.3961 57.8982 50.6531C58.2748 50.5539 58.647 50.4548 59.0236 50.3556C58.9653 50.2879 58.907 50.2023 58.8398 50.0851C58.8084 50.031 58.777 49.9724 58.7456 49.9183C58.7366 49.9047 58.6649 49.7334 58.6873 49.8011C58.5528 49.4629 58.2389 49.224 57.8578 49.3277C57.5439 49.4133 57.2614 49.8146 57.3959 50.1572Z" fill="#727272"/>
<path d="M64.1891 49.6342C64.2429 49.9183 64.3506 50.1933 64.4985 50.4457C64.651 50.7027 64.9693 50.838 65.2563 50.7568C65.5612 50.6712 65.7226 50.4052 65.7495 50.1031C65.7809 49.7875 65.8123 49.4674 65.8437 49.1519C65.5074 49.3457 65.1711 49.5396 64.8303 49.7379C65.0366 49.8912 65.2429 50.049 65.4491 50.2023C65.7406 50.4187 66.2024 50.2519 66.3683 49.9588C66.5701 49.6162 66.4177 49.251 66.1262 49.0346C65.9199 48.8814 65.7137 48.7236 65.5074 48.5703C65.3191 48.4305 65.0187 48.4576 64.8303 48.5703C64.6106 48.701 64.5209 48.9084 64.4985 49.1564C64.4671 49.4719 64.4358 49.792 64.4044 50.1076C64.8214 49.9949 65.2384 49.8822 65.6599 49.765C65.5523 49.5847 65.5254 49.499 65.485 49.2781C65.4177 48.9174 64.9873 48.7146 64.6555 48.8047C64.2878 48.9039 64.1264 49.2736 64.1891 49.6342Z" fill="#727272"/>
<path d="M67.1754 57.7492C67.2382 58.1234 67.3279 58.484 67.449 58.8447C67.588 59.273 68.0364 59.4533 68.4354 59.2504C68.682 59.1242 68.839 58.8898 68.9018 58.6238C68.9331 58.5021 68.9376 58.3713 68.9466 58.2406C68.9466 58.1955 68.9511 58.1504 68.9556 58.1053C68.9466 58.2947 68.821 58.4164 68.5744 58.4795C68.4623 58.448 68.3502 58.4164 68.2337 58.3894C68.7628 58.6508 69.1753 58.8267 69.7806 58.6914C70.6236 58.5021 70.2694 57.1947 69.4219 57.3885C69.2112 57.4381 69.0901 57.3119 68.9107 57.2217C68.5969 57.0684 68.2381 57.091 67.9646 57.3074C67.7584 57.4697 67.6642 57.6951 67.6283 57.9521C67.6149 58.0512 67.6104 58.1459 67.6014 58.2451C67.5925 58.3308 67.5969 58.3353 67.6059 58.2676C67.5611 58.4209 67.6104 58.3578 67.7584 58.0873C68.0857 58.2226 68.4175 58.3578 68.7448 58.4931C68.6282 58.1324 68.5386 57.7717 68.4713 57.3975C68.4085 57.0369 67.9691 56.834 67.6418 56.9242C67.2651 57.0188 67.1127 57.3885 67.1754 57.7492Z" fill="#727272"/>
<path d="M68.7404 67.5323C68.6955 67.8749 68.6462 68.2175 68.6014 68.5602C68.561 68.8622 68.6283 69.1598 68.9108 69.3221C69.1439 69.4618 69.5475 69.4483 69.7268 69.2184C69.8255 69.0877 69.9241 68.9795 70.0811 68.9254C69.7986 68.709 69.5116 68.4926 69.2291 68.2716C69.2381 68.5421 69.2426 68.8126 69.2515 69.0831C69.265 69.534 69.6685 69.8405 70.1035 69.7368C70.3187 69.6873 70.4981 69.5791 70.6685 69.4438L70.8344 69.3131C70.8209 69.295 70.6057 69.3086 70.5564 69.2545C70.4981 69.1553 70.4398 69.0561 70.3815 68.9569C70.3904 68.9795 70.3949 69.002 70.4039 69.0245C70.6864 69.8405 71.9867 69.4889 71.6998 68.6639C71.5428 68.2175 71.1841 67.9651 70.7088 67.9786C70.516 67.9831 70.3142 68.0462 70.1483 68.1454C70.0138 68.2266 69.8883 68.3934 69.7358 68.4294C70.0183 68.6458 70.3053 68.8622 70.5877 69.0831C70.5788 68.8126 70.5743 68.5421 70.5653 68.2716C70.5564 67.8569 70.1394 67.4737 69.7134 67.6179C69.3412 67.7487 69.0094 67.947 68.7673 68.2626C69.1439 68.4835 69.5161 68.6999 69.8927 68.9208C69.9376 68.5782 69.9869 68.2356 70.0317 67.8929C70.0811 67.5323 69.9465 67.1671 69.5609 67.0589C69.256 66.9733 68.7897 67.1671 68.7404 67.5323Z" fill="#727272"/>
<path d="M66.8078 78.7309C66.7136 79.1141 66.6194 79.4973 66.5298 79.8805C66.4446 80.2322 66.6374 80.6199 67.0006 80.7146C67.3234 80.8002 67.6328 80.7371 67.8974 80.5252C68.1081 80.3539 68.1843 80.0879 68.3771 79.9211C68.2785 79.9797 68.1798 80.0383 68.0812 80.0969C68.1126 80.0834 68.144 80.0699 68.1798 80.0563C68.0588 80.0563 67.9422 80.0563 67.8211 80.0563C67.8525 80.0609 67.8839 80.0699 67.9198 80.0744C67.7853 79.9707 67.6507 79.867 67.5162 79.7633C67.5072 79.7092 67.5117 79.7227 67.5252 79.8129C67.5566 79.8895 67.588 79.9662 67.6238 80.0428C67.7135 80.1916 67.8525 80.2953 68.005 80.3629C68.1664 80.435 68.3457 80.4441 68.5206 80.408C68.5789 80.4035 68.6372 80.3855 68.691 80.3629C68.9556 80.2773 68.9018 80.2502 68.5296 80.2863C68.4489 80.2051 68.3682 80.124 68.2875 80.0428C68.2964 80.0563 68.3099 80.0744 68.3188 80.0879C68.2875 79.9752 68.2561 79.8625 68.2292 79.7453C68.2292 79.7633 68.2292 79.7858 68.2247 79.8039C68.1843 80.674 69.5295 80.674 69.5699 79.8039C69.5878 79.4342 69.3367 79.1231 68.9914 79.0149C68.83 78.9653 68.6507 78.9608 68.4847 79.0014C68.4265 79.0149 68.1978 79.06 68.265 79.069C68.3771 79.1006 68.4892 79.1321 68.6058 79.1592C68.5834 79.1457 68.5655 79.1276 68.543 79.1141C68.6237 79.1953 68.7045 79.2764 68.7852 79.3576C68.7538 79.2944 68.682 79.0555 68.5699 78.9383C68.3906 78.7579 68.0633 78.6768 67.8211 78.7444C67.6238 78.7985 67.4534 78.9157 67.3189 79.0645C67.2472 79.1457 67.1844 79.2358 67.1306 79.3305C67.1127 79.3621 67.0992 79.3936 67.0813 79.4207C66.9557 79.592 67.0499 79.5875 67.3638 79.4026C67.5207 79.6822 67.6776 79.9572 67.8346 80.2367C67.9287 79.8535 68.0229 79.4703 68.1126 79.0871C68.3099 78.244 67.014 77.8833 66.8078 78.7309Z" fill="#727272"/>
<path d="M65.3819 86.8639C65.4805 86.9406 65.5792 87.0172 65.6778 87.0938C65.9648 87.3193 66.4311 87.1389 66.597 86.8504C66.7988 86.5033 66.6464 86.1471 66.3549 85.9262C66.2563 85.8495 66.1576 85.7729 66.059 85.6963C65.772 85.4708 65.3057 85.6512 65.1398 85.9397C64.938 86.2869 65.0949 86.6385 65.3819 86.8639Z" fill="#727272"/>
</g>
<g clip-path="url(#clip1_99640_303)">
<path d="M35.2992 44.7372C35.8584 40.1052 32.6253 36.6467 29.1803 33.9795C27.1737 32.4237 25.2122 31.1257 23.9046 28.8986C23.2372 27.7561 22.5969 26.467 22.2226 25.2001C21.4922 22.7329 22.7547 18.8566 25.8796 21.7016C27.6787 23.3419 28.0936 25.4579 29.4689 27.2805C30.2444 28.3118 31.4349 28.863 32.6749 28.2051C36.404 26.2314 33.5181 19.3856 32.6839 16.6651C31.6738 13.3711 31.1418 10.2016 32.8417 7.03211C33.4009 5.9919 34.0276 4.92059 34.7446 3.98263C35.209 3.37807 35.7997 2.72461 36.4626 2.30675C37.8334 1.43547 38.6585 1.43547 40.1736 1.89778C41.7879 2.39121 41.8014 2.47567 42.1306 4.00485C42.2839 4.71166 42.347 5.48959 42.3831 6.21862C42.4598 7.76114 42.3335 9.31699 42.0134 10.8328C41.4136 13.709 39.6866 16.2517 39.3079 19.1722C39.0283 21.3193 39.2222 28.1429 42.8115 27.5027C47.0185 26.7515 46.7164 20.0924 50.9099 19.2033C54.4 18.461 56.1045 22.2439 54.6255 24.84C53.8229 26.2536 52.4882 27.3471 51.203 28.3118C48.9124 30.0321 46.1122 30.9301 43.8621 32.6682C39.7903 35.8243 41.1431 40.7853 42.816 44.8527C43.1407 45.6396 44.4483 45.2928 44.1191 44.4971C42.9919 41.7544 41.576 38.3982 43.1001 35.5176C44.5114 32.8504 48.236 31.9169 50.6394 30.3433C53.886 28.2184 58.544 24.2176 55.7934 20.0079C53.4937 16.4828 49.0386 17.6608 46.9374 20.6125C46.3016 21.506 45.8101 22.4884 45.2464 23.4264C44.9894 23.8531 44.7324 24.2843 44.4303 24.6844C44.2138 24.9422 43.9974 25.1956 43.781 25.4534C42.072 25.8268 41.1882 25.3779 41.1296 24.0976C39.4161 20.5058 41.4903 16.8251 42.6537 13.5134C43.5194 11.0507 43.8892 8.42793 43.7043 5.82743C43.578 4.02708 43.3887 1.59105 41.6707 0.515291C40.1601 -0.431559 37.8379 0.110769 36.3544 0.848689C34.1449 1.95112 32.7921 4.28935 31.6738 6.36976C28.8015 11.713 31.7009 16.4206 32.7696 21.8038C32.9094 22.5195 33.2656 24.0887 33.0266 24.8844C32.2961 25.5423 31.5656 26.1958 30.8306 26.8537C30.4113 26.3247 30.0956 25.7468 29.8747 25.1112C29.4508 24.1821 29.0044 23.3153 28.3867 22.4884C27.4127 21.1815 25.5729 19.0344 23.6926 19.1411C21.8664 19.2478 20.7932 21.1504 20.5993 22.7374C20.3107 25.0845 21.5868 27.5872 22.7412 29.5787C25.9427 35.0953 34.8663 37.1268 33.9465 44.7461C33.8473 45.5862 35.2 45.5818 35.2992 44.7372Z" fill="#46A358"/>
<path d="M46.9869 22.5728C47.9609 17.7052 46.1212 13.2554 45.7379 8.45007C45.5079 5.5784 46.748 0.986404 50.689 2.29332C53.6244 3.26684 54.7382 6.7164 54.5398 9.47693C54.3955 11.4951 53.4125 17.4162 57.3535 16.865C60.7354 16.3938 62.4804 10.8372 64.1218 8.48118C65.5286 6.46302 68.6354 3.51578 71.368 4.33816C75.6968 5.64064 72.9237 10.7616 70.9306 12.7753C67.5713 16.1671 63.991 19.1677 61.0285 22.9462C59.3105 25.1377 57.8225 28.7384 61.6327 29.7208C63.0982 30.0987 64.5096 29.5964 65.8307 29.0007C66.8949 28.5206 67.9095 27.9472 69.0413 27.6315C71.1065 27.0537 73.5008 27.5071 72.1346 30.0365C68.9376 35.962 61.6192 31.5923 56.8981 34.0772C52.8939 36.1888 51.9605 40.8563 52.3393 44.9505C52.416 45.7995 53.7732 45.8084 53.6921 44.9505C53.426 42.0966 53.656 39.0115 55.6581 36.7489C58.2463 33.8239 61.7003 34.8907 65.1273 34.824C68.6264 34.7574 73.1311 33.0859 73.8571 29.2319C74.6507 25.0088 69.7718 25.8268 67.2692 26.8447C66.1644 27.2937 65.1318 27.9916 63.9775 28.3206C63.0621 28.5828 61.6147 28.7251 60.8932 27.876C60.1943 27.0492 60.7579 25.6578 61.1908 24.9555C62.7735 22.3772 65.1995 20.0256 67.3548 17.9052C70.3264 14.9802 75.3947 11.8774 74.9573 7.10759C74.6236 3.45799 71.2057 2.11996 68.0538 3.48911C66.1599 4.31149 64.5952 5.61841 63.3597 7.24984C61.7454 9.37914 60.8842 12.3041 58.9588 14.1801C58.2644 14.8557 57.5835 16.2916 56.0323 14.8824C55.3424 14.2556 55.5498 12.5842 55.622 11.7263C55.7167 10.6016 55.9602 9.5036 55.9241 8.37005C55.8655 6.45413 55.2207 4.51153 53.9626 3.0268C51.3022 -0.102695 46.7344 0.0351097 44.9668 3.96031C43.9117 6.30743 44.3761 8.99239 44.818 11.4284C45.4674 15.0247 46.4188 18.5542 45.6838 22.2172C45.517 23.0573 46.8201 23.4174 46.9869 22.5728Z" fill="#46A358"/>
<path d="M46.6849 31.0056C46.0491 35.5887 45.0075 40.0785 43.5555 44.4793C43.285 45.2973 44.5926 45.6484 44.8587 44.835C46.3106 40.4341 47.3522 35.9443 47.988 31.3612C48.1053 30.5166 46.8021 30.1566 46.6849 31.0056Z" fill="#46A358"/>
<path d="M30.5059 43.9725C30.3301 40.443 27.8455 38.0603 24.9867 36.2466C23.1335 35.0686 21.1043 34.0862 19.5126 32.5526C18.8272 31.8946 17.5511 30.6188 17.4835 29.5964C17.2535 26.1869 21.4786 28.8407 22.4165 29.6275C23.0748 30.1832 24.0353 29.2408 23.3724 28.6851C21.898 27.4449 19.2511 25.8313 17.2265 26.7648C15.5941 27.516 15.8647 29.3786 16.4915 30.7211C19.1293 36.4244 28.806 37.0779 29.1532 43.9725C29.1938 44.826 30.551 44.8305 30.5059 43.9725Z" fill="#46A358"/>
<path d="M60.8391 45.2928C62.5256 42.7856 64.7486 40.7363 67.4721 39.3583C69.9522 38.1047 73.0274 37.8869 75.2234 36.1132C77.744 34.0773 77.8748 29.0852 73.7038 29.2141C72.8335 29.2408 72.8335 30.5744 73.7038 30.5477C75.3496 30.77 76.017 31.6679 75.7149 33.2371C75.3767 34.1395 74.804 34.8508 73.9969 35.3664C73.0094 36.0554 71.8099 36.3711 70.6736 36.7267C69.2262 37.1801 67.8148 37.6557 66.4756 38.367C63.6889 39.8517 61.4118 42.0299 59.6668 44.6215C59.1843 45.3372 60.3567 46.004 60.8391 45.2928Z" fill="#46A358"/>
<path d="M64.5141 33.5616C58.7829 34.6285 56.6681 40.2518 55.3109 45.1727C55.0809 46.004 56.3886 46.3552 56.614 45.5284C57.8495 41.0519 59.6307 35.8243 64.8748 34.8508C65.7271 34.6863 65.3663 33.4016 64.5141 33.5616Z" fill="#46A358"/>
<path d="M34.2937 13.2645C33.6218 10.6017 34.4605 7.68561 36.6339 5.8986C37.0713 5.52075 37.5673 5.2318 38.1129 5.03176C39.6145 5.34738 40.3134 6.13864 40.2097 7.40555C40.2368 8.14348 40.0925 8.8725 39.9166 9.58375C39.5604 11.0196 38.9336 12.3843 38.4692 13.789C37.2742 17.4075 35.5562 23.3242 38.7848 26.4048C39.0959 26.7026 39.5784 26.2314 39.2628 25.9336C36.431 23.2353 37.883 18.0476 38.8524 14.8159C39.6911 12.0153 41.9683 8.29462 40.4307 5.35182C39.2312 3.05805 36.4806 4.92063 35.3127 6.26311C33.5857 8.25016 33.0041 10.9218 33.6398 13.4423C33.7481 13.8601 34.3974 13.6823 34.2937 13.2645Z" fill="#46A358"/>
<path d="M48.5877 24.062C48.9755 23.213 49.7601 22.0127 50.8107 21.8705C52.4115 21.6527 53.2367 23.6353 52.3799 24.9466C51.5728 26.1824 50.0352 27.0448 48.7095 27.5738C46.5045 28.4495 45.0255 29.6587 43.4247 31.3879C43.1316 31.7035 43.6096 32.1792 43.9027 31.8591C44.8722 30.8056 45.8642 29.712 47.1268 28.983C48.1323 28.4006 49.3002 28.1739 50.3102 27.6049C51.5412 26.907 53.5343 25.4001 53.6786 23.8798C53.7958 22.6529 52.4837 21.2304 51.2572 21.1548C49.7782 21.0615 48.5426 22.5551 48.006 23.7286C47.8257 24.1109 48.4119 24.4532 48.5877 24.062Z" fill="#46A358"/>
<path d="M23.3003 24.8356C23.4491 23.6665 23.8955 23.2353 24.635 23.5509C24.8965 23.5553 25.113 23.6487 25.2934 23.8309C25.6496 24.0621 25.8841 24.4044 26.096 24.7644C26.4748 25.409 26.6506 26.1603 26.9302 26.8448C27.2864 27.725 27.7554 28.4407 28.5625 28.9653C28.9277 29.2053 29.2659 28.6274 28.9052 28.3874C26.9212 27.0893 27.4758 23.7198 24.9957 22.9019C23.5077 22.4129 22.0107 23.6842 22.7186 25.169C22.9035 25.5602 23.4852 25.2223 23.3003 24.8356Z" fill="#46A358"/>
<path d="M47.5326 7.58342C47.1809 5.66305 49.2325 4.13387 50.8017 5.53414C51.6675 6.30762 52.0012 7.73012 52.0057 8.84144C52.0147 10.3484 51.3158 11.6953 51.6134 13.2067C51.6945 13.629 52.3484 13.4512 52.2672 13.0289C51.8929 11.1308 52.9661 9.31264 52.4836 7.34338C52.1951 6.16537 51.6089 4.85401 50.3733 4.40948C48.1458 3.61377 46.509 5.73862 46.8787 7.75679C46.9599 8.17909 47.6092 8.00128 47.5326 7.58342Z" fill="#46A358"/>
<path d="M47.1944 11.9798C48.2946 14.2602 48.8357 16.2606 48.7546 18.79C48.741 19.2212 49.4174 19.2167 49.4309 18.79C49.5166 16.1317 48.9304 14.0291 47.7806 11.6464C47.5912 11.2596 47.0095 11.5975 47.1944 11.9798Z" fill="#46A358"/>
<path d="M64.735 10.0727C65.3888 8.60128 66.6243 7.67221 68.0538 6.9743C68.4641 6.76093 68.8879 6.58756 69.3298 6.44976C71.2372 7.08988 71.7197 7.97449 70.7773 9.11249C70.3264 9.8104 69.6725 10.4372 69.1089 11.0506C66.9625 13.3844 64.6448 15.5448 62.1963 17.563C61.8627 17.8386 62.3406 18.3098 62.6743 18.0342C64.8883 16.2116 66.9941 14.2735 68.9601 12.1931C70.1415 10.944 72.4096 9.09027 71.9136 7.11655C70.9261 3.20468 64.9785 7.86781 64.1488 9.73928C63.9775 10.126 64.5637 10.4639 64.735 10.0727Z" fill="#46A358"/>
<path d="M60.9158 19.9856C58.7559 21.5503 57.4437 23.8308 57.1957 26.458C57.1551 26.8847 57.8315 26.8803 57.8721 26.458C58.0976 24.0842 59.306 21.9727 61.2585 20.559C61.6057 20.3101 61.2675 19.7278 60.9158 19.9856Z" fill="#46A358"/>
<path d="M65.195 31.1079C65.6369 30.8456 66.0788 30.57 66.5432 30.3433C66.8949 30.1522 67.2647 30.0055 67.6525 29.9032C68.3785 29.6054 68.622 30.1611 68.3785 31.5702C67.9005 32.4993 65.3122 32.5349 64.5096 32.486C62.503 32.3704 60.6137 31.8281 58.6341 32.4282C58.2193 32.5526 58.3952 33.1972 58.8145 33.0727C61.1908 32.3482 63.504 33.4017 65.9029 33.1394C67.2061 32.9927 69.0503 32.4015 69.6996 31.1568C70.0604 30.4633 69.9747 29.5476 69.1856 29.1698C67.8915 28.5519 65.8714 29.921 64.8523 30.53C64.4825 30.7567 64.8207 31.3346 65.195 31.1079Z" fill="#46A358"/>
<path d="M55.1395 33.5884C51.6224 36.4023 50.3417 40.6698 49.9855 44.9728C49.9495 45.3996 50.6258 45.3996 50.6619 44.9728C51.0046 40.8342 52.2356 36.7623 55.6175 34.0596C55.9557 33.7884 55.4732 33.3217 55.1395 33.5884Z" fill="#46A358"/>
<path d="M40.0022 34.7218C38.9561 36.5088 38.9877 38.4559 39.2176 40.4562C39.4115 42.1366 39.6325 43.7858 40.8094 45.0927C41.098 45.4128 41.5759 44.9415 41.2873 44.6215C40.133 43.3412 39.9887 41.5631 39.8354 39.9272C39.6731 38.2247 39.6956 36.5755 40.5884 35.0552C40.8049 34.6862 40.2232 34.3528 40.0022 34.7218Z" fill="#46A358"/>
<path d="M21.3433 30.3299C19.3864 30.3565 20.1619 32.388 21.2081 33.1171C22.5157 34.0283 24.0037 34.6374 25.3926 35.4064C27.0294 36.3132 27.6877 37.8424 28.9458 39.1182C29.2479 39.4249 29.7259 38.9537 29.4238 38.647C28.1747 37.3801 27.5705 35.8643 25.9607 34.9574C25.1491 34.4996 24.2968 34.1128 23.4807 33.6727C23.0568 33.446 22.633 33.2193 22.2271 32.9659C22.0648 32.8681 21.898 32.7659 21.7356 32.6681C20.9285 32.3658 20.8022 31.8101 21.3478 31.0011C21.7762 30.9922 21.7762 30.3254 21.3433 30.3299Z" fill="#46A358"/>
<path d="M72.2383 33.4018C72.2608 34.2908 71.846 34.7754 70.9848 34.8598C70.5699 35.0243 70.1596 35.1843 69.7447 35.3488C69.127 35.5933 68.5047 35.8378 67.887 36.0823C66.444 36.6513 64.9966 37.2247 63.5536 37.7937C63.1523 37.9493 63.3282 38.5983 63.734 38.4383C65.3844 37.7848 67.0347 37.1358 68.6851 36.4824C69.9071 35.9978 71.4672 35.6511 72.5539 34.8954C73.4964 34.2375 73.5234 32.8728 72.2338 32.735C71.8054 32.6861 71.8099 33.3573 72.2383 33.4018Z" fill="#46A358"/>
<path d="M62.0025 38.7181C60.1898 40.4073 58.7604 42.3899 57.7503 44.6392C57.5745 45.026 58.1561 45.3683 58.3365 44.9771C59.324 42.7811 60.7083 40.843 62.4849 39.1937C62.7961 38.8959 62.3181 38.4247 62.0025 38.7181Z" fill="#46A358"/>
<path d="M30.5511 41.6344C31.0696 42.3901 31.4033 43.2036 31.5611 44.1016C31.6333 44.5239 32.2871 44.346 32.215 43.9237C32.0481 42.9769 31.6829 42.0923 31.1373 41.2966C30.8938 40.9454 30.3076 41.2788 30.5511 41.6344Z" fill="#46A358"/>
</g>
<defs>
<clipPath id="clip0_99640_303">
<rect width="55" height="48" fill="white" transform="translate(19 44.9998)"/>
</clipPath>
<clipPath id="clip1_99640_303">
<rect width="61" height="46" fill="white" transform="translate(16 -0.000244141)"/>
</clipPath>
</defs>
</svg>
