<svg width="83" height="90" viewBox="0 0 83 90" fill="none" xmlns="http://www.w3.org/2000/svg">
<circle cx="37" cy="52.9998" r="37" fill="#46A358" fill-opacity="0.13"/>
<g clip-path="url(#clip0_99640_304)">
<path d="M22.2488 40.7763C39.0215 39.0235 55.9382 41.7141 72.6698 39.2897C73.4514 39.1751 73.1182 37.9915 72.3407 38.1062C55.7284 40.5101 38.9063 37.8072 22.2488 39.5477C21.4672 39.6296 21.4589 40.8582 22.2488 40.7763Z" fill="#727272"/>
<path d="M22.0843 39.5725C20.4469 40.0803 20.6526 42.2099 21.5207 43.3401C22.9441 45.1912 26.1407 45.2322 28.2265 45.0356C29.0122 44.9619 29.0163 43.7333 28.2265 43.807C26.8771 43.934 25.4783 43.9217 24.166 43.5367C23.483 43.3361 22.7631 43.0535 22.3723 42.4146C22.1707 42.0829 21.784 40.9526 22.4134 40.7601C23.1704 40.5226 22.8454 39.335 22.0843 39.5725Z" fill="#727272"/>
<path d="M69.7818 39.6748C70.6498 39.6216 71.4891 39.4742 72.353 39.3595C73.723 39.1752 74.4265 39.5438 74.6651 40.9771C74.8625 42.1689 74.1097 42.517 73.0483 42.8528C72.5464 43.0125 72.0198 43.1108 71.5014 43.2132C70.115 43.4834 68.7245 43.6186 67.3134 43.6677C66.5235 43.6964 66.5194 44.925 67.3134 44.8963C69.7201 44.8103 76.4793 44.7202 76.216 40.9321C76.1502 39.9861 75.2328 38.6797 74.373 38.2538C73.0894 37.6149 71.09 38.3643 69.7777 38.4462C68.9919 38.4954 68.9878 39.724 69.7818 39.6748Z" fill="#727272"/>
<path d="M24.0549 44.7733C23.8862 47.3738 20.9242 48.844 19.3526 50.6296C18.1184 52.0342 17.1475 53.6519 16.444 55.376C14.9301 59.0699 14.6421 63.2103 15.4114 67.1049C16.9953 75.0947 23.0593 81.6881 30.6332 84.518C31.3778 84.7965 31.6987 83.6088 30.9623 83.3344C23.0963 80.394 16.983 73.0266 16.3001 64.5781C15.975 60.5647 16.8266 56.3875 19.077 53.0089C20.9447 50.2077 25.0546 48.414 25.2891 44.7733C25.3385 43.987 24.1043 43.987 24.0549 44.7733Z" fill="#727272"/>
<path d="M70.8226 44.2493C70.8226 47.4805 73.18 49.5076 75.5784 51.3136C77.6395 52.8617 79.2357 54.3687 80.2519 56.7972C81.1364 58.9063 81.626 61.1833 81.737 63.4643C82.1402 71.8556 77.2446 79.6448 69.7201 83.31C69.0084 83.6581 69.6296 84.7188 70.3413 84.3707C77.331 80.9675 82.2595 74.0506 82.9177 66.3024C83.251 62.3832 82.5681 58.0668 80.5687 54.6308C78.3677 50.8427 72.0568 49.1063 72.0527 44.2493C72.0568 43.4589 70.8226 43.4589 70.8226 44.2493Z" fill="#727272"/>
<path d="M30.267 83.617C29.4689 85.3821 30.9005 86.9055 32.6778 86.9874C34.6072 87.0816 36.6436 86.6352 38.5772 86.5533C40.8193 86.455 43.0615 86.4509 45.3036 86.4837C53.6714 86.6106 62.0351 87.2454 70.3659 86.1151C70.6498 86.0783 70.7938 85.767 70.8185 85.5213C70.8843 84.8333 70.8267 84.3255 70.6251 83.6784C70.3906 82.9249 69.2017 83.2484 69.4362 84.006C69.646 84.5016 69.6954 85.0094 69.5843 85.5213C69.7365 85.3247 69.8846 85.1282 70.0368 84.9275C63.5408 85.808 56.9873 85.5868 50.4543 85.3821C47.2865 85.2838 44.1146 85.1937 40.9469 85.2469C39.4987 85.2715 38.0506 85.3288 36.6025 85.4271C35.8126 85.4803 35.0268 85.5541 34.2411 85.6319C33.661 85.6892 30.4439 86.1847 31.3284 84.2272C31.6534 83.5187 30.592 82.8962 30.267 83.617Z" fill="#727272"/>
<path d="M22.0802 51.2235C17.0529 57.3787 16.662 65.9706 21.1751 72.523C21.3972 72.8465 21.9321 72.5394 21.7099 72.2118C17.3614 65.9009 17.6617 57.6039 22.5204 51.6535C22.7631 51.3545 22.3311 50.9163 22.0802 51.2235Z" fill="#727272"/>
<path d="M22.4134 74.804C22.8166 75.3856 23.2773 75.9221 23.7916 76.4094C24.0796 76.6797 24.5156 76.2497 24.2277 75.9753C23.7504 75.5248 23.3226 75.0334 22.9441 74.4969C22.7219 74.1734 22.1871 74.4764 22.4134 74.804Z" fill="#727272"/>
<path d="M25.865 78.3384C26.2641 78.3384 26.2641 77.7241 25.865 77.7241C25.466 77.7241 25.466 78.3384 25.865 78.3384Z" fill="#727272"/>
<path d="M69.6296 44.282C69.3128 45.4614 69.0413 46.6491 69.5062 47.8285C69.9382 48.9219 70.8144 49.9089 71.5591 50.814C73.3445 52.9763 76.9977 55.159 77.1705 58.1732C77.1911 58.5663 77.8082 58.5704 77.7876 58.1732C77.6601 55.9167 75.9898 54.471 74.4512 53.0049C73.4597 52.0589 72.5258 51.0556 71.6701 49.9826C71.0942 49.2578 70.4442 48.4919 70.1109 47.6196C69.7037 46.559 69.9381 45.5147 70.222 44.4499C70.3249 44.0649 69.7283 43.9011 69.6296 44.282Z" fill="#727272"/>
<path d="M77.4379 59.5985C77.5243 60.3848 77.6107 61.1711 77.6971 61.9574C77.7382 62.3464 78.3594 62.3505 78.3141 61.9574C78.2278 61.1711 78.1414 60.3848 78.055 59.5985C78.0138 59.2095 77.3967 59.2054 77.4379 59.5985Z" fill="#727272"/>
<path d="M77.4955 63.575C77.5408 63.8043 77.5037 64.0214 77.4173 64.2343C77.3556 64.3899 77.4873 64.5701 77.6313 64.6111C77.8082 64.6602 77.948 64.5497 78.0097 64.3981C78.1373 64.0787 78.1537 63.747 78.0879 63.4112C78.018 63.0262 77.4215 63.19 77.4955 63.575Z" fill="#727272"/>
<path d="M50.7423 59.0823C52.2151 56.2975 54.9879 54.4751 58.2091 54.6348C62.0434 54.8232 66.0751 58.1444 63.3887 62.0677C61.813 64.3652 58.9826 65.8518 56.8968 67.6619C54.5806 69.6726 52.4619 71.8882 50.5078 74.2553C50.0059 74.8614 50.8739 75.7337 51.3799 75.1235C54.3585 71.5155 57.7278 68.4645 61.4304 65.6142C63.9029 63.7058 66.6387 60.8105 65.1371 57.4564C63.8947 54.6798 60.4636 53.3161 57.5715 53.398C54.1651 53.4963 51.2442 55.4948 49.6726 58.4598C49.3065 59.1601 50.372 59.7826 50.7423 59.0823Z" fill="#727272"/>
<path d="M50.4502 58.1282C47.8131 55.1755 44.5219 52.1328 40.2516 52.3539C37.0838 52.5177 34.3563 54.9094 33.8996 58.0586C33.336 61.8959 36.2158 65.2622 39.0215 67.4859C42.469 70.2175 47.6691 71.1635 50.2486 74.8656C50.697 75.5127 51.7666 74.8984 51.3141 74.2473C49.7055 71.9375 47.3647 70.7499 44.8798 69.5541C41.7203 68.0347 38.606 66.155 36.5737 63.2228C34.3069 59.9588 34.6813 54.9667 39.075 53.7709C43.3741 52.6037 46.9944 56.1093 49.5739 58.9964C50.1046 59.5903 50.9767 58.718 50.4502 58.1282Z" fill="#727272"/>
</g>
<g clip-path="url(#clip1_99640_304)">
<path d="M46.4719 12.6287C45.283 14.7818 43.4689 16.5067 41.1405 17.3997C40.2313 17.7504 39.0342 17.73 39.1535 16.4863C39.2276 15.7115 40.0668 15.0387 40.6756 14.6758C41.7123 14.056 43.041 13.8521 44.1559 13.3709C44.8799 13.0569 44.2546 12.0008 43.5347 12.3147C41.5436 13.1752 39.3633 13.379 38.232 15.4669C37.6273 16.5842 37.4298 18.1378 38.7915 18.774C40.2683 19.4631 42.3006 18.3499 43.5265 17.5669C45.2296 16.4822 46.5665 15.002 47.5333 13.2445C47.92 12.5553 46.8545 11.9355 46.4719 12.6287Z" fill="#46A358"/>
<path d="M43.8967 12.1188C42.3993 12.2819 40.9142 12.2901 39.4292 12.0128C38.8861 11.9108 38.3472 11.7722 37.8207 11.605C37.3764 11.4745 36.9485 11.3155 36.5248 11.1238C35.8954 10.3327 35.9571 9.89232 36.7182 9.79445C38.9478 8.08993 42.4322 9.88008 44.6207 10.7079C45.3653 10.9892 45.6862 9.80668 44.9498 9.52939C43.0452 8.80763 40.9554 7.72293 38.8615 7.95537C37.6602 8.08586 34.8917 8.60374 34.5708 10.1003C33.8303 13.5664 42.1072 13.5419 43.8967 13.3462C44.6783 13.2565 44.6866 12.0332 43.8967 12.1188Z" fill="#46A358"/>
<path d="M45.353 9.54961C43.4812 8.07753 41.8192 5.78581 41.9097 3.30244C41.9509 2.19735 42.6584 1.72841 43.6828 2.2259C44.2463 2.49911 44.6372 3.19641 44.9457 3.72245C45.6615 4.95394 45.9618 6.36078 46.2251 7.74315C46.3732 8.51385 47.5621 8.18763 47.414 7.41693C47.019 5.35357 46.4554 3.20457 44.9169 1.66316C44.0078 0.753816 42.4939 -0.290099 41.4243 0.933239C38.9231 3.79177 42.1977 8.6158 44.4808 10.4141C45.0979 10.8994 45.9782 10.0389 45.353 9.54961Z" fill="#46A358"/>
<path d="M47.3852 7.75563C47.6567 5.79014 48.5206 2.0508 50.7996 1.41466C52.9182 0.827463 52.7084 4.20387 52.116 5.32119C51.5195 6.44666 50.3471 7.50281 49.4955 8.44478C48.969 9.0279 49.837 9.89647 50.3676 9.30927C51.5894 7.95544 53.416 6.4018 53.6792 4.49748C53.8849 3.02131 53.7738 0.790763 52.1325 0.138316C50.635 -0.457042 49.1541 0.896785 48.3025 1.96109C47.0478 3.52696 46.4637 5.46799 46.1922 7.42125C46.0852 8.20011 47.2741 8.53449 47.3852 7.75563Z" fill="#46A358"/>
<path d="M50.454 9.46447C51.8897 8.27375 54.5555 7.44596 56.3079 8.51842C58.5787 9.91302 55.3618 10.749 54.3004 10.8183C53.165 10.8958 52.0296 10.8264 50.9024 10.696C50.1167 10.6062 50.1208 11.8296 50.9024 11.9193C52.7454 12.1313 55.2342 12.4046 56.9497 11.4993C58.0152 10.9366 58.7803 9.57457 58.1262 8.42871C57.394 7.1442 55.333 6.83429 53.996 6.87099C52.3381 6.91992 50.8448 7.55606 49.586 8.59998C48.9731 9.10562 49.8493 9.97011 50.454 9.46447Z" fill="#46A358"/>
<path d="M50.5857 11.8784C51.8569 12.3432 53.1198 13.0446 53.8438 14.2272C54.7488 15.7115 54.7694 18.4436 52.1366 17.9339C49.8205 17.4853 48.1462 15.0468 47.6732 12.9304C47.5004 12.1638 46.3115 12.486 46.4843 13.2567C46.9039 15.1406 47.9529 16.8043 49.5243 17.9584C50.7585 18.8677 52.9264 19.9524 54.3786 18.9207C55.8719 17.8605 55.8719 15.6666 55.1972 14.1579C54.3992 12.3799 52.7002 11.3483 50.923 10.6958C50.1661 10.4267 49.8452 11.6092 50.5857 11.8784Z" fill="#46A358"/>
<path d="M38.1045 15.2465C34.5008 17.3996 31.8433 19.7973 31.2139 24.1116C30.5269 28.797 31.6253 33.6944 32.6291 38.2575C32.7977 39.0282 33.9866 38.702 33.8179 37.9313C32.9294 33.8942 32.0202 29.7104 32.2959 25.5552C32.5962 21.0247 34.9657 18.5495 38.7216 16.3067C39.4045 15.8989 38.7874 14.8387 38.1045 15.2465Z" fill="#46A358"/>
<path d="M54.0084 13.8642C59.0477 14.2557 62.6144 18.2682 63.9678 22.8639C65.4405 27.8674 64.6178 33.1359 63.8156 38.176C63.6922 38.9467 64.8811 39.277 65.0045 38.5022C65.9424 32.5894 66.8845 26.3096 64.4615 20.6089C62.6267 16.2905 58.8174 13.016 54.0084 12.6409C53.2144 12.5797 53.2185 13.8031 54.0084 13.8642Z" fill="#46A358"/>
<path d="M39.3263 17.7831C33.2996 22.13 35.2536 31.9575 36.4713 38.066C36.6235 38.8367 37.8165 38.5105 37.6602 37.7398C37.0226 34.5428 36.4302 31.3091 36.4919 28.0387C36.5536 24.858 37.1583 20.8496 39.9475 18.8392C40.5851 18.3784 39.9721 17.3182 39.3263 17.7831Z" fill="#46A358"/>
<path d="M46.0934 13.8275C43.8514 17.2488 42.4034 21.0738 41.8768 25.1271C41.6012 27.2516 41.5806 29.4047 41.8357 31.5333C42.1113 33.8577 42.8641 36.0923 43.1438 38.4166C43.2343 39.1873 44.4726 39.1996 44.378 38.4166C43.8926 34.3592 42.642 30.624 42.9711 26.4728C43.3125 22.1626 44.7935 18.0603 47.163 14.4433C47.5908 13.7827 46.5254 13.171 46.0934 13.8275Z" fill="#46A358"/>
<path d="M49.1088 17.6076C50.9477 20.617 51.3344 24.022 51.6552 27.4596C51.9885 31.0358 52.26 34.6161 52.4903 38.2005C52.5397 38.9834 53.7738 38.9875 53.7245 38.2005C53.4653 34.1431 53.1732 30.0857 52.7536 26.0405C52.4245 22.8639 51.8692 19.7525 50.1743 16.9878C49.7629 16.319 48.6933 16.9307 49.1088 17.6076Z" fill="#46A358"/>
<path d="M54.7241 18.1786C59.3192 23.9079 59.4714 31.2235 59.3069 38.2047C59.2904 38.9917 60.5246 38.9917 60.541 38.2047C60.7138 30.8402 60.4176 23.3289 55.5963 17.3141C55.1026 16.6984 54.2346 17.571 54.7241 18.1786Z" fill="#46A358"/>
<path d="M46.9533 19.671C46.8833 19.9442 46.8175 20.2133 46.7476 20.4865C46.6529 20.8698 47.2453 21.0329 47.3441 20.6496C47.414 20.3764 47.4798 20.1073 47.5497 19.8341C47.6444 19.4548 47.052 19.2917 46.9533 19.671Z" fill="#46A358"/>
<path d="M48.2861 21.7954C48.2861 22.1013 48.2861 22.4071 48.2861 22.7129C48.2861 23.1085 48.9031 23.1085 48.9031 22.7129C48.9031 22.4071 48.9031 22.1013 48.9031 21.7954C48.9031 21.3999 48.2861 21.3999 48.2861 21.7954Z" fill="#46A358"/>
<path d="M45.3077 23.7326C45.2748 24.173 45.2378 24.6174 45.2049 25.0578C45.1761 25.4493 45.7932 25.4493 45.822 25.0578C45.8549 24.6174 45.8919 24.173 45.9248 23.7326C45.9536 23.3411 45.3365 23.3411 45.3077 23.7326Z" fill="#46A358"/>
<path d="M49.3145 25.8731C49.3145 26.2809 49.3145 26.6886 49.3145 27.0964C49.3145 27.492 49.9316 27.492 49.9316 27.0964C49.9316 26.6886 49.9316 26.2809 49.9316 25.8731C49.9316 25.4775 49.3145 25.4775 49.3145 25.8731Z" fill="#46A358"/>
<path d="M46.9491 28.116C46.9491 28.5564 46.9491 29.0009 46.9491 29.4413C46.9491 29.8368 47.5662 29.8368 47.5662 29.4413C47.5662 29.0009 47.5662 28.5564 47.5662 28.116C47.5662 27.7204 46.9491 27.7204 46.9491 28.116Z" fill="#46A358"/>
<path d="M45.6121 32.6016C45.6121 33.2133 45.6121 33.8249 45.6121 34.4366C45.6121 34.8321 46.2292 34.8321 46.2292 34.4366C46.2292 33.8249 46.2292 33.2133 46.2292 32.6016C46.2292 32.206 45.6121 32.206 45.6121 32.6016Z" fill="#46A358"/>
<path d="M43.7815 28.6012C43.8514 29.0089 43.9255 29.4167 43.9954 29.8245C44.0612 30.2119 44.6577 30.0488 44.5919 29.6614C44.522 29.2536 44.4479 28.8458 44.378 28.4381C44.3081 28.0547 43.7116 28.2179 43.7815 28.6012Z" fill="#46A358"/>
<path d="M48.5 34.6406C48.5329 35.0484 48.5699 35.4561 48.6028 35.8639C48.6358 36.2554 49.2528 36.2554 49.2199 35.8639C49.187 35.4561 49.15 35.0484 49.1171 34.6406C49.0842 34.2491 48.463 34.245 48.5 34.6406Z" fill="#46A358"/>
<path d="M50.3471 30.0529C50.38 30.4607 50.417 30.8685 50.4499 31.2763C50.4828 31.6637 51.0999 31.6678 51.067 31.2763C51.0341 30.8685 50.9971 30.4607 50.9642 30.0529C50.9312 29.6615 50.3142 29.6574 50.3471 30.0529Z" fill="#46A358"/>
<path d="M57.431 16.4006C57.9082 16.8124 58.3854 17.2243 58.8626 17.6321C59.1629 17.889 59.599 17.4567 59.2987 17.1998C58.8215 16.788 58.3443 16.3761 57.8671 15.9683C57.5709 15.7114 57.1307 16.1396 57.431 16.4006Z" fill="#46A358"/>
<path d="M57.6902 19.8055C57.9576 20.2826 58.2291 20.7638 58.4965 21.2409C58.6898 21.5834 59.2246 21.2776 59.0313 20.931C58.7639 20.4539 58.4924 19.9727 58.225 19.4956C58.0275 19.1531 57.4969 19.463 57.6902 19.8055Z" fill="#46A358"/>
<path d="M60.1625 20.0052C60.467 20.4171 60.7714 20.8289 61.0758 21.2367C61.3062 21.5507 61.8451 21.2449 61.6106 20.9268C61.3062 20.5149 61.0017 20.1031 60.6973 19.6953C60.4628 19.3854 59.928 19.6871 60.1625 20.0052Z" fill="#46A358"/>
<path d="M61.6847 25.339C61.7875 26.0526 61.8945 26.7662 61.9973 27.4799C62.0549 27.8672 62.6473 27.7041 62.5938 27.3167C62.491 26.6031 62.384 25.8895 62.2812 25.1759C62.2195 24.7885 61.6271 24.9557 61.6847 25.339Z" fill="#46A358"/>
<path d="M59.6113 23.5081C59.7142 23.8466 59.817 24.1891 59.9198 24.5275C60.035 24.9027 60.6274 24.7437 60.5163 24.3644C60.4135 24.026 60.3106 23.6834 60.2078 23.345C60.0926 22.9698 59.4961 23.1289 59.6113 23.5081Z" fill="#46A358"/>
<path d="M62.8818 31.1744C62.927 31.6597 62.9188 32.1449 62.8406 32.6261C62.7789 33.0094 63.3713 33.1766 63.4371 32.7892C63.5235 32.2509 63.5523 31.7167 63.5029 31.1744C63.4618 30.787 62.8447 30.7829 62.8818 31.1744Z" fill="#46A358"/>
<path d="M61.4501 33.1114C61.4501 33.4865 61.4501 33.8576 61.4501 34.2327C61.4501 34.6283 62.0672 34.6283 62.0672 34.2327C62.0672 33.8576 62.0672 33.4865 62.0672 33.1114C62.0672 32.7158 61.4501 32.7158 61.4501 33.1114Z" fill="#46A358"/>
<path d="M62.0878 22.8926C62.2565 23.3003 62.4293 23.7081 62.5979 24.1159C62.6637 24.2709 62.8036 24.3769 62.9764 24.328C63.1204 24.2913 63.2561 24.1037 63.1903 23.9528C63.0216 23.545 62.8489 23.1372 62.6802 22.7295C62.6144 22.5745 62.4745 22.4685 62.3017 22.5174C62.1577 22.5541 62.0261 22.7417 62.0878 22.8926Z" fill="#46A358"/>
<path d="M60.9359 29.951C60.9359 30.1875 60.9359 30.4281 60.9359 30.6646C60.9359 31.0601 61.553 31.0601 61.553 30.6646C61.553 30.4281 61.553 30.1875 61.553 29.951C61.553 29.5554 60.9359 29.5554 60.9359 29.951Z" fill="#46A358"/>
<path d="M62.1701 36.7815C62.1536 37.071 62.0837 37.3483 61.9767 37.6174C61.915 37.7724 62.0467 37.9518 62.1906 37.9926C62.3675 38.0415 62.5074 37.9314 62.5691 37.7805C62.7007 37.4584 62.7666 37.1281 62.7871 36.7815C62.8118 36.3859 62.1948 36.39 62.1701 36.7815Z" fill="#46A358"/>
<path d="M36.2903 18.8839C36.0805 19.1856 35.8707 19.4874 35.6568 19.7891C35.4305 20.1153 35.9653 20.4212 36.1916 20.099C36.4014 19.7973 36.6112 19.4955 36.8251 19.1938C37.0472 18.8675 36.5124 18.5617 36.2903 18.8839Z" fill="#46A358"/>
<path d="M34.5296 23.345C34.4515 23.7161 34.3774 24.0872 34.2993 24.4624C34.2211 24.8457 34.8135 25.0129 34.8958 24.6255C34.9739 24.2544 35.048 23.8833 35.1261 23.5082C35.2043 23.1248 34.6078 22.9617 34.5296 23.345Z" fill="#46A358"/>
<path d="M34.3322 21.1225C34.0072 21.5507 33.7645 22.0237 33.5999 22.5335C33.4765 22.9086 34.073 23.0676 34.1964 22.6966C34.3486 22.2358 34.5749 21.8198 34.8669 21.4325C35.1055 21.1144 34.5666 20.8126 34.3322 21.1225Z" fill="#46A358"/>
<path d="M33.0775 25.1801C33.0034 25.6898 32.9252 26.1954 32.8512 26.7051C32.7936 27.0885 33.3901 27.2557 33.4477 26.8683C33.5217 26.3585 33.5999 25.8529 33.674 25.3432C33.7315 24.9558 33.1351 24.7886 33.0775 25.1801Z" fill="#46A358"/>
<path d="M33.6945 28.116C33.6411 28.6258 33.674 29.1273 33.7727 29.6289C33.8468 30.0163 34.4432 29.8532 34.3692 29.4658C34.2828 29.0172 34.2664 28.5687 34.3157 28.116C34.3486 27.7246 33.7316 27.7287 33.6945 28.116Z" fill="#46A358"/>
<path d="M34.2006 31.9899C34.2335 32.2958 34.2705 32.6016 34.3034 32.9074C34.3199 33.0705 34.4309 33.2133 34.6119 33.2133C34.7641 33.2133 34.941 33.0746 34.9205 32.9074C34.8876 32.6016 34.8505 32.2958 34.8176 31.9899C34.8012 31.8268 34.6901 31.6841 34.5091 31.6841C34.3569 31.6841 34.1841 31.8227 34.2006 31.9899Z" fill="#46A358"/>
<path d="M33.2009 34.2898C33.4395 34.6772 33.6123 35.085 33.7192 35.5295C33.8138 35.9128 34.4062 35.7497 34.3157 35.3664C34.1964 34.877 33.9989 34.4122 33.7357 33.9799C33.5259 33.6455 32.9952 33.9555 33.2009 34.2898Z" fill="#46A358"/>
<path d="M34.5173 36.863C34.5872 37.0343 34.6531 37.2015 34.723 37.3727C34.7847 37.5236 34.9287 37.6337 35.1015 37.5848C35.2496 37.544 35.3812 37.3646 35.3154 37.2096C35.2455 37.0383 35.1796 36.8712 35.1097 36.6999C35.048 36.549 34.904 36.4389 34.7312 36.4878C34.5872 36.5245 34.4556 36.708 34.5173 36.863Z" fill="#46A358"/>
</g>
<defs>
<clipPath id="clip0_99640_304">
<rect width="68" height="49" fill="white" transform="translate(15 37.9998)"/>
</clipPath>
<clipPath id="clip1_99640_304">
<rect width="35" height="39" fill="white" transform="translate(31 -0.000244141)"/>
</clipPath>
</defs>
</svg>
